<svg width="24" height="24" viewBox="0 0 24 24" fill="none" xmlns="http://www.w3.org/2000/svg">
<g clip-path="url(#clip0_77_175)">
<path d="M7.75067 4.99195C7.67661 5.06896 7.61619 5.15801 7.572 5.25529L7.56667 5.24995L0.0893342 22.094L0.0966675 22.1013C-0.0419991 22.37 0.190001 22.9166 0.665334 23.3926C1.14067 23.868 1.68733 24.1 1.956 23.9613L1.96267 23.968L18.8067 16.49L18.8013 16.484C18.8993 16.4373 18.9893 16.3806 19.0647 16.3046C20.106 15.2633 18.4173 11.8866 15.294 8.76262C12.1693 5.63862 8.79267 3.95062 7.75067 4.99195Z" fill="#DD2E44"/>
<path d="M8.66667 8L0.277334 21.6707L0.0893342 22.094L0.0966675 22.1013C-0.0419991 22.37 0.190001 22.9167 0.665334 23.3927C0.820001 23.5473 0.980668 23.6647 1.138 23.764L11.3333 11.3333L8.66667 8Z" fill="#EA596E"/>
<path d="M15.3413 8.7107C18.4546 11.8254 20.1833 15.1454 19.2006 16.1267C18.2186 17.1094 14.8986 15.3814 11.7833 12.268C8.66928 9.15336 6.94128 5.83203 7.92328 4.85003C8.90594 3.86803 12.2259 5.59603 15.3413 8.7107Z" fill="#A0041E"/>
<path d="M12.3932 9.07256C12.3252 9.12771 12.247 9.16879 12.163 9.19339C12.079 9.218 11.9909 9.22565 11.9039 9.2159C11.3252 9.15323 10.8386 8.9519 10.4979 8.6339C10.1372 8.29723 9.95923 7.84523 10.0079 7.39256C10.0932 6.5979 10.8906 5.86856 12.2499 6.01523C12.7786 6.0719 13.0146 5.9019 13.0226 5.82056C13.0319 5.7399 12.8379 5.52323 12.3092 5.4659C11.7306 5.40323 11.2439 5.2019 10.9026 4.8839C10.5419 4.54723 10.3632 4.09523 10.4126 3.64256C10.4992 2.8479 11.2959 2.11856 12.6539 2.2659C13.0392 2.30723 13.2426 2.2279 13.3286 2.17656C13.3972 2.13456 13.4246 2.09456 13.4272 2.07123C13.4352 1.99056 13.2439 1.7739 12.7139 1.71656C12.6268 1.70727 12.5424 1.68087 12.4656 1.63888C12.3887 1.59689 12.3209 1.54014 12.266 1.47188C12.2111 1.40363 12.1703 1.32521 12.1458 1.24113C12.1213 1.15704 12.1136 1.06895 12.1232 0.981898C12.1324 0.894841 12.1588 0.810462 12.2007 0.733607C12.2426 0.656752 12.2993 0.588936 12.3675 0.534051C12.4357 0.479167 12.5141 0.438297 12.5981 0.413788C12.6822 0.389278 12.7702 0.381613 12.8572 0.391231C14.2152 0.537231 14.8392 1.41923 14.7532 2.21456C14.6666 3.01056 13.8699 3.73856 12.5106 3.59256C12.1252 3.55056 11.9239 3.63056 11.8372 3.6819C11.7686 3.72323 11.7406 3.7639 11.7379 3.78656C11.7292 3.8679 11.9219 4.0839 12.4519 4.14123C13.8099 4.2879 14.4339 5.16923 14.3479 5.96456C14.2619 6.75923 13.4652 7.48856 12.1066 7.34123C11.7212 7.2999 11.5186 7.3799 11.4319 7.43056C11.3626 7.47323 11.3359 7.51323 11.3332 7.5359C11.3246 7.61656 11.5172 7.83323 12.0466 7.89056C12.1776 7.90471 12.3016 7.95741 12.4027 8.04199C12.5039 8.12657 12.5776 8.23925 12.6147 8.36576C12.6518 8.49227 12.6506 8.62695 12.6112 8.75276C12.5717 8.87857 12.4959 8.98986 12.3932 9.07256Z" fill="#AA8DD8"/>
<path d="M20.4406 15.2379C21.7559 14.8666 22.6633 15.4532 22.8793 16.2232C23.0953 16.9926 22.6273 17.9666 21.3126 18.3366C20.7993 18.4806 20.6453 18.7259 20.6659 18.8039C20.6886 18.8826 20.9493 19.0119 21.4613 18.8672C22.7759 18.4972 23.6833 19.0839 23.8993 19.8532C24.1166 20.6232 23.6473 21.5959 22.3319 21.9666C21.8193 22.1106 21.6646 22.3566 21.6873 22.4346C21.7093 22.5126 21.9693 22.6419 22.4819 22.4979C22.567 22.4716 22.6565 22.4626 22.745 22.4715C22.8336 22.4803 22.9195 22.5068 22.9977 22.5494C23.0759 22.592 23.1448 22.6498 23.2002 22.7194C23.2557 22.789 23.2967 22.8691 23.3207 22.9548C23.3448 23.0405 23.3514 23.1302 23.3402 23.2185C23.3291 23.3068 23.3003 23.392 23.2557 23.469C23.2111 23.5461 23.1515 23.6134 23.0804 23.667C23.0093 23.7206 22.9283 23.7595 22.8419 23.7812C21.5279 24.1512 20.6199 23.5659 20.4026 22.7952C20.1866 22.0259 20.6553 21.0532 21.9713 20.6826C22.4846 20.5379 22.6386 20.2932 22.6159 20.2146C22.5946 20.1366 22.3346 20.0066 21.8226 20.1506C20.5066 20.5212 19.5999 19.9359 19.3833 19.1646C19.1666 18.3952 19.6353 17.4226 20.9506 17.0512C21.4626 16.9079 21.6166 16.6612 21.5953 16.5839C21.5726 16.5052 21.3133 16.3759 20.8006 16.5199C20.7149 16.5488 20.6243 16.5599 20.5341 16.5526C20.444 16.5454 20.3563 16.5198 20.2763 16.4776C20.1964 16.4354 20.1259 16.3773 20.0691 16.3069C20.0123 16.2366 19.9704 16.1554 19.9459 16.0684C19.9215 15.9813 19.915 15.8902 19.9269 15.8006C19.9388 15.7109 19.9687 15.6246 20.015 15.547C20.0613 15.4693 20.1229 15.4018 20.196 15.3487C20.2692 15.2956 20.3524 15.2579 20.4406 15.2379Z" fill="#77B255"/>
<path d="M15.3339 13.4401C15.1958 13.4399 15.0612 13.3969 14.9487 13.317C14.8361 13.2372 14.751 13.1243 14.7052 12.9941C14.6595 12.8638 14.6552 12.7226 14.693 12.5898C14.7309 12.4571 14.809 12.3393 14.9166 12.2528C15.0619 12.1361 18.5286 9.41345 23.4279 10.1141C23.5165 10.1241 23.6023 10.1518 23.68 10.1956C23.7577 10.2393 23.8259 10.2983 23.8804 10.3688C23.935 10.4394 23.9748 10.5202 23.9976 10.6064C24.0204 10.6927 24.0256 10.7826 24.013 10.8709C24.0003 10.9592 23.9701 11.0441 23.9241 11.1205C23.8781 11.1969 23.8172 11.2633 23.745 11.3158C23.6729 11.3682 23.5909 11.4057 23.5041 11.4259C23.4172 11.4461 23.3271 11.4487 23.2392 11.4334C18.9106 10.8188 15.7812 13.2694 15.7506 13.2941C15.6323 13.3887 15.4853 13.4402 15.3339 13.4401Z" fill="#AA8DD8"/>
<path d="M3.83606 10.6667C3.73215 10.6667 3.62968 10.6425 3.53682 10.5958C3.44396 10.5492 3.36329 10.4815 3.30124 10.3981C3.23919 10.3148 3.19749 10.2181 3.17946 10.1157C3.16143 10.0134 3.16757 9.90827 3.1974 9.80873C3.95273 7.29339 4.6374 3.27939 3.79606 2.23273C3.70206 2.11406 3.56006 1.99739 3.23473 2.02206C2.6094 2.07006 2.66873 3.38939 2.6694 3.40273C2.67786 3.49105 2.66862 3.58017 2.64219 3.66487C2.61577 3.74957 2.57271 3.82815 2.51553 3.89599C2.45835 3.96383 2.3882 4.01958 2.3092 4.05996C2.2302 4.10035 2.14393 4.12455 2.05545 4.13116C1.96697 4.13777 1.87806 4.12666 1.79393 4.09847C1.70981 4.07027 1.63215 4.02557 1.56553 3.96698C1.4989 3.90839 1.44464 3.83708 1.40592 3.75725C1.36721 3.67742 1.34481 3.59066 1.34006 3.50206C1.2714 2.58273 1.5574 0.81206 3.13473 0.692727C3.83873 0.639394 4.4234 0.88406 4.83606 1.39739C6.41673 3.36473 4.81206 9.06806 4.47473 10.1921C4.43345 10.3293 4.34902 10.4496 4.23398 10.5351C4.11894 10.6206 3.9794 10.6668 3.83606 10.6667Z" fill="#77B255"/>
<path d="M17 7.33325C17.5523 7.33325 18 6.88554 18 6.33325C18 5.78097 17.5523 5.33325 17 5.33325C16.4477 5.33325 16 5.78097 16 6.33325C16 6.88554 16.4477 7.33325 17 7.33325Z" fill="#5C913B"/>
<path d="M1.33333 13.3334C2.06971 13.3334 2.66667 12.7365 2.66667 12.0001C2.66667 11.2637 2.06971 10.6667 1.33333 10.6667C0.596954 10.6667 0 11.2637 0 12.0001C0 12.7365 0.596954 13.3334 1.33333 13.3334Z" fill="#9266CC"/>
<path d="M21.6667 14C22.219 14 22.6667 13.5523 22.6667 13C22.6667 12.4477 22.219 12 21.6667 12C21.1145 12 20.6667 12.4477 20.6667 13C20.6667 13.5523 21.1145 14 21.6667 14Z" fill="#5C913B"/>
<path d="M15.6667 22C16.219 22 16.6667 21.5523 16.6667 21C16.6667 20.4477 16.219 20 15.6667 20C15.1145 20 14.6667 20.4477 14.6667 21C14.6667 21.5523 15.1145 22 15.6667 22Z" fill="#5C913B"/>
<path d="M18.6666 3.99992C19.403 3.99992 19.9999 3.40296 19.9999 2.66659C19.9999 1.93021 19.403 1.33325 18.6666 1.33325C17.9302 1.33325 17.3333 1.93021 17.3333 2.66659C17.3333 3.40296 17.9302 3.99992 18.6666 3.99992Z" fill="#FFCC4D"/>
<path d="M21.6667 6.66675C22.219 6.66675 22.6667 6.21903 22.6667 5.66675C22.6667 5.11446 22.219 4.66675 21.6667 4.66675C21.1145 4.66675 20.6667 5.11446 20.6667 5.66675C20.6667 6.21903 21.1145 6.66675 21.6667 6.66675Z" fill="#FFCC4D"/>
<path d="M19.6667 9.33325C20.219 9.33325 20.6667 8.88554 20.6667 8.33325C20.6667 7.78097 20.219 7.33325 19.6667 7.33325C19.1145 7.33325 18.6667 7.78097 18.6667 8.33325C18.6667 8.88554 19.1145 9.33325 19.6667 9.33325Z" fill="#FFCC4D"/>
<path d="M5 16.6667C5.55228 16.6667 6 16.219 6 15.6667C6 15.1145 5.55228 14.6667 5 14.6667C4.44772 14.6667 4 15.1145 4 15.6667C4 16.219 4.44772 16.6667 5 16.6667Z" fill="#FFCC4D"/>
</g>
<defs>
<clipPath id="clip0_77_175">
<rect width="24" height="24" fill="white"/>
</clipPath>
</defs>
</svg>
