<?xml version="1.0" standalone="no"?><svg xmlns:xlink="http://www.w3.org/1999/xlink" xmlns="http://www.w3.org/2000/svg" viewBox="0 0 1000 615.387532950257" preserveAspectRatio="xMaxYMax slice"><g transform="scale(0.948208833513493)"><rect x="0" y="0" width="1054.625" height="649" fill="#E35B48"/><circle cx="20.285" cy="20.285" r="4.055" fill="#fa6d36"/><circle cx="60.845" cy="20.285" r="4.055" fill="#e75e45"/><circle cx="101.405" cy="20.285" r="4.055" fill="#e26e41"/><circle cx="141.965" cy="20.285" r="4.055" fill="#f1653e"/><circle cx="182.535" cy="20.285" r="4.055" fill="#e19733"/><circle cx="223.095" cy="20.285" r="4.055" fill="#dd774f"/><circle cx="263.65500000000003" cy="20.285" r="4.055" fill="#f86b38"/><circle cx="304.21500000000003" cy="20.285" r="4.055" fill="#e26b3d"/><circle cx="344.785" cy="20.285" r="4.055" fill="#f4683b"/><circle cx="385.345" cy="20.285" r="4.055" fill="#e1654a"/><circle cx="425.90500000000003" cy="20.285" r="4.055" fill="#fa6c37"/><circle cx="466.46500000000003" cy="20.285" r="4.055" fill="#e26e3b"/><circle cx="507.035" cy="20.285" r="4.055" fill="#e18838"/><circle cx="547.5949999999999" cy="20.285" r="4.055" fill="#e17735"/><circle cx="588.155" cy="20.285" r="4.055" fill="#e0af2a"/><circle cx="628.7149999999999" cy="20.285" r="4.055" fill="#dd784f"/><circle cx="669.285" cy="20.285" r="4.055" fill="#e17e30"/><circle cx="709.8449999999999" cy="20.285" r="4.055" fill="#e17e30"/><circle cx="750.405" cy="20.285" r="4.055" fill="#db8051"/><circle cx="790.9649999999999" cy="20.285" r="4.055" fill="#f6693a"/><circle cx="831.535" cy="20.285" r="4.055" fill="#dfbf25"/><circle cx="872.0949999999999" cy="20.285" r="4.055" fill="#e17c31"/><circle cx="912.655" cy="20.285" r="4.055" fill="#dc7b50"/><circle cx="953.2149999999999" cy="20.285" r="4.055" fill="#e08b28"/><circle cx="993.785" cy="20.285" r="4.055" fill="#e35d47"/><circle cx="1034.345" cy="20.285" r="4.055" fill="#dd774f"/><circle cx="20.285" cy="60.845" r="4.055" fill="#e08929"/><circle cx="60.845" cy="60.845" r="4.055" fill="#df6e4d"/><circle cx="101.405" cy="60.845" r="4.055" fill="#e35d47"/><circle cx="141.965" cy="60.845" r="4.055" fill="#eb6142"/><circle cx="182.535" cy="60.845" r="4.055" fill="#e36544"/><circle cx="223.095" cy="60.845" r="4.055" fill="#df8f25"/><circle cx="263.65500000000003" cy="60.845" r="4.055" fill="#dc7c50"/><circle cx="304.21500000000003" cy="60.845" r="4.055" fill="#e27340"/><circle cx="344.785" cy="60.845" r="4.055" fill="#e0b329"/><circle cx="385.345" cy="60.845" r="4.055" fill="#f5693a"/><circle cx="425.90500000000003" cy="60.845" r="4.055" fill="#e27140"/><circle cx="466.46500000000003" cy="60.845" r="4.055" fill="#db8251"/><circle cx="507.035" cy="60.845" r="4.055" fill="#e0882a"/><circle cx="547.5949999999999" cy="60.845" r="4.055" fill="#e36644"/><circle cx="588.155" cy="60.845" r="4.055" fill="#e25e49"/><circle cx="628.7149999999999" cy="60.845" r="4.055" fill="#e55d46"/><circle cx="669.285" cy="60.845" r="4.055" fill="#e27d3c"/><circle cx="709.8449999999999" cy="60.845" r="4.055" fill="#e0a32e"/><circle cx="750.405" cy="60.845" r="4.055" fill="#e0a32e"/><circle cx="790.9649999999999" cy="60.845" r="4.055" fill="#db8151"/><circle cx="831.535" cy="60.845" r="4.055" fill="#e0694b"/><circle cx="872.0949999999999" cy="60.845" r="4.055" fill="#e17f30"/><circle cx="912.655" cy="60.845" r="4.055" fill="#df6e4d"/><circle cx="953.2149999999999" cy="60.845" r="4.055" fill="#fc6e35"/><circle cx="993.785" cy="60.845" r="4.055" fill="#f5683b"/><circle cx="1034.345" cy="60.845" r="4.055" fill="#e26b42"/><circle cx="20.285" cy="101.405" r="4.055" fill="#de714d"/><circle cx="60.845" cy="101.405" r="4.055" fill="#dd754e"/><circle cx="101.405" cy="101.405" r="4.055" fill="#e26740"/><circle cx="141.965" cy="101.405" r="4.055" fill="#e2763f"/><circle cx="182.535" cy="101.405" r="4.055" fill="#df9322"/><circle cx="223.095" cy="101.405" r="4.055" fill="#dd784f"/><circle cx="263.65500000000003" cy="101.405" r="4.055" fill="#fc6e35"/><circle cx="304.21500000000003" cy="101.405" r="4.055" fill="#e19932"/><circle cx="344.785" cy="101.405" r="4.055" fill="#e19534"/><circle cx="385.345" cy="101.405" r="4.055" fill="#e36644"/><circle cx="425.90500000000003" cy="101.405" r="4.055" fill="#e36243"/><circle cx="466.46500000000003" cy="101.405" r="4.055" fill="#e36843"/><circle cx="507.035" cy="101.405" r="4.055" fill="#f1663d"/><circle cx="547.5949999999999" cy="101.405" r="4.055" fill="#f5693a"/><circle cx="588.155" cy="101.405" r="4.055" fill="#e36045"/><circle cx="628.7149999999999" cy="101.405" r="4.055" fill="#e0ba26"/><circle cx="669.285" cy="101.405" r="4.055" fill="#f1663d"/><circle cx="709.8449999999999" cy="101.405" r="4.055" fill="#e35c48"/><circle cx="750.405" cy="101.405" r="4.055" fill="#eb6142"/><circle cx="790.9649999999999" cy="101.405" r="4.055" fill="#ec6241"/><circle cx="831.535" cy="101.405" r="4.055" fill="#e26541"/><circle cx="872.0949999999999" cy="101.405" r="4.055" fill="#e1654a"/><circle cx="912.655" cy="101.405" r="4.055" fill="#fe6f34"/><circle cx="953.2149999999999" cy="101.405" r="4.055" fill="#dfbe25"/><circle cx="993.785" cy="101.405" r="4.055" fill="#fd6e35"/><circle cx="1034.345" cy="101.405" r="4.055" fill="#fe7033"/><circle cx="20.285" cy="141.965" r="4.055" fill="#dc794f"/><circle cx="60.845" cy="141.965" r="4.055" fill="#f76a39"/><circle cx="101.405" cy="141.965" r="4.055" fill="#e19434"/><circle cx="141.965" cy="141.965" r="4.055" fill="#f76a39"/><circle cx="182.535" cy="141.965" r="4.055" fill="#e19e30"/><circle cx="223.095" cy="141.965" r="4.055" fill="#e19a32"/><circle cx="263.65500000000003" cy="141.965" r="4.055" fill="#dc7b50"/><circle cx="304.21500000000003" cy="141.965" r="4.055" fill="#ed6340"/><circle cx="344.785" cy="141.965" r="4.055" fill="#f4683b"/><circle cx="385.345" cy="141.965" r="4.055" fill="#dd754e"/><circle cx="425.90500000000003" cy="141.965" r="4.055" fill="#e25e49"/><circle cx="466.46500000000003" cy="141.965" r="4.055" fill="#e26e3b"/><circle cx="507.035" cy="141.965" r="4.055" fill="#e27f3b"/><circle cx="547.5949999999999" cy="141.965" r="4.055" fill="#e17437"/><circle cx="588.155" cy="141.965" r="4.055" fill="#f96b38"/><circle cx="628.7149999999999" cy="141.965" r="4.055" fill="#e26740"/><circle cx="669.285" cy="141.965" r="4.055" fill="#f76a39"/><circle cx="709.8449999999999" cy="141.965" r="4.055" fill="#e08c27"/><circle cx="750.405" cy="141.965" r="4.055" fill="#f6693a"/><circle cx="790.9649999999999" cy="141.965" r="4.055" fill="#dfc323"/><circle cx="831.535" cy="141.965" r="4.055" fill="#e85f44"/><circle cx="872.0949999999999" cy="141.965" r="4.055" fill="#e27e3c"/><circle cx="912.655" cy="141.965" r="4.055" fill="#f76a39"/><circle cx="953.2149999999999" cy="141.965" r="4.055" fill="#e17735"/><circle cx="993.785" cy="141.965" r="4.055" fill="#f96c37"/><circle cx="1034.345" cy="141.965" r="4.055" fill="#db7d50"/><circle cx="20.285" cy="182.535" r="4.055" fill="#e26f3b"/><circle cx="60.845" cy="182.535" r="4.055" fill="#e26740"/><circle cx="101.405" cy="182.535" r="4.055" fill="#dc7a50"/><circle cx="141.965" cy="182.535" r="4.055" fill="#e35c48"/><circle cx="182.535" cy="182.535" r="4.055" fill="#e2783e"/><circle cx="223.095" cy="182.535" r="4.055" fill="#e36146"/><circle cx="263.65500000000003" cy="182.535" r="4.055" fill="#e0ac2b"/><circle cx="304.21500000000003" cy="182.535" r="4.055" fill="#e06b4c"/><circle cx="344.785" cy="182.535" r="4.055" fill="#df6e4d"/><circle cx="385.345" cy="182.535" r="4.055" fill="#e0832d"/><circle cx="425.90500000000003" cy="182.535" r="4.055" fill="#df9223"/><circle cx="466.46500000000003" cy="182.535" r="4.055" fill="#e18e36"/><circle cx="507.035" cy="182.535" r="4.055" fill="#ff7033"/><circle cx="547.5949999999999" cy="182.535" r="4.055" fill="#e36144"/><circle cx="588.155" cy="182.535" r="4.055" fill="#da8251"/><circle cx="628.7149999999999" cy="182.535" r="4.055" fill="#e35d47"/><circle cx="669.285" cy="182.535" r="4.055" fill="#f86b38"/><circle cx="709.8449999999999" cy="182.535" r="4.055" fill="#dfbe25"/><circle cx="750.405" cy="182.535" r="4.055" fill="#e0bd25"/><circle cx="790.9649999999999" cy="182.535" r="4.055" fill="#e35c47"/><circle cx="831.535" cy="182.535" r="4.055" fill="#dd774f"/><circle cx="872.0949999999999" cy="182.535" r="4.055" fill="#fd6e35"/><circle cx="912.655" cy="182.535" r="4.055" fill="#e08a28"/><circle cx="953.2149999999999" cy="182.535" r="4.055" fill="#e36046"/><circle cx="993.785" cy="182.535" r="4.055" fill="#df9123"/><circle cx="1034.345" cy="182.535" r="4.055" fill="#e26149"/><circle cx="20.285" cy="223.095" r="4.055" fill="#f6693a"/><circle cx="60.845" cy="223.095" r="4.055" fill="#e55d46"/><circle cx="101.405" cy="223.095" r="4.055" fill="#dc794f"/><circle cx="141.965" cy="223.095" r="4.055" fill="#e17b32"/><circle cx="182.535" cy="223.095" r="4.055" fill="#dc7b50"/><circle cx="223.095" cy="223.095" r="4.055" fill="#dc794f"/><circle cx="263.65500000000003" cy="223.095" r="4.055" fill="#fa6c37"/><circle cx="304.21500000000003" cy="223.095" r="4.055" fill="#e17934"/><circle cx="344.785" cy="223.095" r="4.055" fill="#fc6e35"/><circle cx="385.345" cy="223.095" r="4.055" fill="#db7f51"/><circle cx="425.90500000000003" cy="223.095" r="4.055" fill="#e36843"/><circle cx="466.46500000000003" cy="223.095" r="4.055" fill="#e17238"/><circle cx="507.035" cy="223.095" r="4.055" fill="#e27b3d"/><circle cx="547.5949999999999" cy="223.095" r="4.055" fill="#df6e4d"/><circle cx="588.155" cy="223.095" r="4.055" fill="#e35b48"/><circle cx="628.7149999999999" cy="223.095" r="4.055" fill="#fc6d36"/><circle cx="669.285" cy="223.095" r="4.055" fill="#dfc323"/><circle cx="709.8449999999999" cy="223.095" r="4.055" fill="#e1664b"/><circle cx="750.405" cy="223.095" r="4.055" fill="#e1634a"/><circle cx="790.9649999999999" cy="223.095" r="4.055" fill="#df9322"/><circle cx="831.535" cy="223.095" r="4.055" fill="#e19533"/><circle cx="872.0949999999999" cy="223.095" r="4.055" fill="#e85f44"/><circle cx="912.655" cy="223.095" r="4.055" fill="#e2683f"/><circle cx="953.2149999999999" cy="223.095" r="4.055" fill="#dc7a50"/><circle cx="993.785" cy="223.095" r="4.055" fill="#fc6e35"/><circle cx="1034.345" cy="223.095" r="4.055" fill="#e2803b"/><circle cx="20.285" cy="263.65500000000003" r="4.055" fill="#e19434"/><circle cx="60.845" cy="263.65500000000003" r="4.055" fill="#fd6e35"/><circle cx="101.405" cy="263.65500000000003" r="4.055" fill="#e26d3c"/><circle cx="141.965" cy="263.65500000000003" r="4.055" fill="#e1644a"/><circle cx="182.535" cy="263.65500000000003" r="4.055" fill="#e1644a"/><circle cx="223.095" cy="263.65500000000003" r="4.055" fill="#f6693a"/><circle cx="263.65500000000003" cy="263.65500000000003" r="4.055" fill="#e26641"/><circle cx="304.21500000000003" cy="263.65500000000003" r="4.055" fill="#e19035"/><circle cx="344.785" cy="263.65500000000003" r="4.055" fill="#dd764f"/><circle cx="385.345" cy="263.65500000000003" r="4.055" fill="#e27e3c"/><circle cx="425.90500000000003" cy="263.65500000000003" r="4.055" fill="#e0bc26"/><circle cx="466.46500000000003" cy="263.65500000000003" r="4.055" fill="#e25d49"/><circle cx="507.035" cy="263.65500000000003" r="4.055" fill="#e26e3b"/><circle cx="547.5949999999999" cy="263.65500000000003" r="4.055" fill="#e26a43"/><circle cx="588.155" cy="263.65500000000003" r="4.055" fill="#db8151"/><circle cx="628.7149999999999" cy="263.65500000000003" r="4.055" fill="#da8251"/><circle cx="669.285" cy="263.65500000000003" r="4.055" fill="#ea6043"/><circle cx="709.8449999999999" cy="263.65500000000003" r="4.055" fill="#e19d31"/><circle cx="750.405" cy="263.65500000000003" r="4.055" fill="#e26a3e"/><circle cx="790.9649999999999" cy="263.65500000000003" r="4.055" fill="#e08a28"/><circle cx="831.535" cy="263.65500000000003" r="4.055" fill="#f5683b"/><circle cx="872.0949999999999" cy="263.65500000000003" r="4.055" fill="#e08929"/><circle cx="912.655" cy="263.65500000000003" r="4.055" fill="#da8352"/><circle cx="953.2149999999999" cy="263.65500000000003" r="4.055" fill="#e1654a"/><circle cx="993.785" cy="263.65500000000003" r="4.055" fill="#de734e"/><circle cx="1034.345" cy="263.65500000000003" r="4.055" fill="#df6f4d"/><circle cx="20.285" cy="304.21500000000003" r="4.055" fill="#f76a39"/><circle cx="60.845" cy="304.21500000000003" r="4.055" fill="#e19434"/><circle cx="101.405" cy="304.21500000000003" r="4.055" fill="#fb6d36"/><circle cx="141.965" cy="304.21500000000003" r="4.055" fill="#e19434"/><circle cx="182.535" cy="304.21500000000003" r="4.055" fill="#eb6142"/><circle cx="223.095" cy="304.21500000000003" r="4.055" fill="#df9123"/><circle cx="263.65500000000003" cy="304.21500000000003" r="4.055" fill="#f66a39"/><circle cx="304.21500000000003" cy="304.21500000000003" r="4.055" fill="#e55c47"/><circle cx="344.785" cy="304.21500000000003" r="4.055" fill="#e17a33"/><circle cx="385.345" cy="304.21500000000003" r="4.055" fill="#de704d"/><circle cx="425.90500000000003" cy="304.21500000000003" r="4.055" fill="#e18738"/><circle cx="466.46500000000003" cy="304.21500000000003" r="4.055" fill="#e17d31"/><circle cx="507.035" cy="304.21500000000003" r="4.055" fill="#e0b129"/><circle cx="547.5949999999999" cy="304.21500000000003" r="4.055" fill="#e35e47"/><circle cx="588.155" cy="304.21500000000003" r="4.055" fill="#dfc223"/><circle cx="628.7149999999999" cy="304.21500000000003" r="4.055" fill="#f5683b"/><circle cx="669.285" cy="304.21500000000003" r="4.055" fill="#e28439"/><circle cx="709.8449999999999" cy="304.21500000000003" r="4.055" fill="#e2693e"/><circle cx="750.405" cy="304.21500000000003" r="4.055" fill="#e08d26"/><circle cx="790.9649999999999" cy="304.21500000000003" r="4.055" fill="#e35f47"/><circle cx="831.535" cy="304.21500000000003" r="4.055" fill="#fa6c37"/><circle cx="872.0949999999999" cy="304.21500000000003" r="4.055" fill="#e35d46"/><circle cx="912.655" cy="304.21500000000003" r="4.055" fill="#e17834"/><circle cx="953.2149999999999" cy="304.21500000000003" r="4.055" fill="#f2673c"/><circle cx="993.785" cy="304.21500000000003" r="4.055" fill="#e17a33"/><circle cx="1034.345" cy="304.21500000000003" r="4.055" fill="#e0872a"/><circle cx="20.285" cy="344.785" r="4.055" fill="#df6f4d"/><circle cx="60.845" cy="344.785" r="4.055" fill="#e96043"/><circle cx="101.405" cy="344.785" r="4.055" fill="#dfc423"/><circle cx="141.965" cy="344.785" r="4.055" fill="#ea6043"/><circle cx="182.535" cy="344.785" r="4.055" fill="#db7f51"/><circle cx="223.095" cy="344.785" r="4.055" fill="#e1644a"/><circle cx="263.65500000000003" cy="344.785" r="4.055" fill="#dfc224"/><circle cx="304.21500000000003" cy="344.785" r="4.055" fill="#f2663d"/><circle cx="344.785" cy="344.785" r="4.055" fill="#e0822d"/><circle cx="385.345" cy="344.785" r="4.055" fill="#df6c4c"/><circle cx="425.90500000000003" cy="344.785" r="4.055" fill="#de734e"/><circle cx="466.46500000000003" cy="344.785" r="4.055" fill="#da8352"/><circle cx="507.035" cy="344.785" r="4.055" fill="#e2624a"/><circle cx="547.5949999999999" cy="344.785" r="4.055" fill="#e0b727"/><circle cx="588.155" cy="344.785" r="4.055" fill="#e26541"/><circle cx="628.7149999999999" cy="344.785" r="4.055" fill="#ea6043"/><circle cx="669.285" cy="344.785" r="4.055" fill="#e26d42"/><circle cx="709.8449999999999" cy="344.785" r="4.055" fill="#e26a43"/><circle cx="750.405" cy="344.785" r="4.055" fill="#ec6241"/><circle cx="790.9649999999999" cy="344.785" r="4.055" fill="#fd6f34"/><circle cx="831.535" cy="344.785" r="4.055" fill="#e27d3c"/><circle cx="872.0949999999999" cy="344.785" r="4.055" fill="#e2683f"/><circle cx="912.655" cy="344.785" r="4.055" fill="#e65d46"/><circle cx="953.2149999999999" cy="344.785" r="4.055" fill="#e36943"/><circle cx="993.785" cy="344.785" r="4.055" fill="#da8252"/><circle cx="1034.345" cy="344.785" r="4.055" fill="#e26b3d"/><circle cx="20.285" cy="385.345" r="4.055" fill="#e45c47"/><circle cx="60.845" cy="385.345" r="4.055" fill="#e17536"/><circle cx="101.405" cy="385.345" r="4.055" fill="#dc7a50"/><circle cx="141.965" cy="385.345" r="4.055" fill="#fb6d36"/><circle cx="182.535" cy="385.345" r="4.055" fill="#e85f44"/><circle cx="223.095" cy="385.345" r="4.055" fill="#f5683b"/><circle cx="263.65500000000003" cy="385.345" r="4.055" fill="#da8352"/><circle cx="304.21500000000003" cy="385.345" r="4.055" fill="#e26b3d"/><circle cx="344.785" cy="385.345" r="4.055" fill="#ef643f"/><circle cx="385.345" cy="385.345" r="4.055" fill="#db7d50"/><circle cx="425.90500000000003" cy="385.345" r="4.055" fill="#e19534"/><circle cx="466.46500000000003" cy="385.345" r="4.055" fill="#f76a39"/><circle cx="507.035" cy="385.345" r="4.055" fill="#e0b827"/><circle cx="547.5949999999999" cy="385.345" r="4.055" fill="#e55d46"/><circle cx="588.155" cy="385.345" r="4.055" fill="#df9124"/><circle cx="628.7149999999999" cy="385.345" r="4.055" fill="#e35b48"/><circle cx="669.285" cy="385.345" r="4.055" fill="#e27139"/><circle cx="709.8449999999999" cy="385.345" r="4.055" fill="#de704d"/><circle cx="750.405" cy="385.345" r="4.055" fill="#dc7b50"/><circle cx="790.9649999999999" cy="385.345" r="4.055" fill="#e27240"/><circle cx="831.535" cy="385.345" r="4.055" fill="#e17d31"/><circle cx="872.0949999999999" cy="385.345" r="4.055" fill="#ef643f"/><circle cx="912.655" cy="385.345" r="4.055" fill="#e19932"/><circle cx="953.2149999999999" cy="385.345" r="4.055" fill="#dd754e"/><circle cx="993.785" cy="385.345" r="4.055" fill="#da8352"/><circle cx="1034.345" cy="385.345" r="4.055" fill="#fc6e35"/><circle cx="20.285" cy="425.90500000000003" r="4.055" fill="#e26d41"/><circle cx="60.845" cy="425.90500000000003" r="4.055" fill="#e0b02a"/><circle cx="101.405" cy="425.90500000000003" r="4.055" fill="#f2673c"/><circle cx="141.965" cy="425.90500000000003" r="4.055" fill="#e36146"/><circle cx="182.535" cy="425.90500000000003" r="4.055" fill="#e27e3b"/><circle cx="223.095" cy="425.90500000000003" r="4.055" fill="#f6693a"/><circle cx="263.65500000000003" cy="425.90500000000003" r="4.055" fill="#e26943"/><circle cx="304.21500000000003" cy="425.90500000000003" r="4.055" fill="#df6d4c"/><circle cx="344.785" cy="425.90500000000003" r="4.055" fill="#e08929"/><circle cx="385.345" cy="425.90500000000003" r="4.055" fill="#e27240"/><circle cx="425.90500000000003" cy="425.90500000000003" r="4.055" fill="#e36445"/><circle cx="466.46500000000003" cy="425.90500000000003" r="4.055" fill="#e19235"/><circle cx="507.035" cy="425.90500000000003" r="4.055" fill="#e85f44"/><circle cx="547.5949999999999" cy="425.90500000000003" r="4.055" fill="#e27c3c"/><circle cx="588.155" cy="425.90500000000003" r="4.055" fill="#e0852c"/><circle cx="628.7149999999999" cy="425.90500000000003" r="4.055" fill="#eb6142"/><circle cx="669.285" cy="425.90500000000003" r="4.055" fill="#e25d49"/><circle cx="709.8449999999999" cy="425.90500000000003" r="4.055" fill="#e0be25"/><circle cx="750.405" cy="425.90500000000003" r="4.055" fill="#e26541"/><circle cx="790.9649999999999" cy="425.90500000000003" r="4.055" fill="#e0b02a"/><circle cx="831.535" cy="425.90500000000003" r="4.055" fill="#e0852c"/><circle cx="872.0949999999999" cy="425.90500000000003" r="4.055" fill="#e35d48"/><circle cx="912.655" cy="425.90500000000003" r="4.055" fill="#e19b31"/><circle cx="953.2149999999999" cy="425.90500000000003" r="4.055" fill="#f3673c"/><circle cx="993.785" cy="425.90500000000003" r="4.055" fill="#e18738"/><circle cx="1034.345" cy="425.90500000000003" r="4.055" fill="#e26f3a"/><circle cx="20.285" cy="466.46500000000003" r="4.055" fill="#e17636"/><circle cx="60.845" cy="466.46500000000003" r="4.055" fill="#df6b4c"/><circle cx="101.405" cy="466.46500000000003" r="4.055" fill="#e65d46"/><circle cx="141.965" cy="466.46500000000003" r="4.055" fill="#ee6340"/><circle cx="182.535" cy="466.46500000000003" r="4.055" fill="#e1654b"/><circle cx="223.095" cy="466.46500000000003" r="4.055" fill="#e65d46"/><circle cx="263.65500000000003" cy="466.46500000000003" r="4.055" fill="#fd6f34"/><circle cx="304.21500000000003" cy="466.46500000000003" r="4.055" fill="#ea6142"/><circle cx="344.785" cy="466.46500000000003" r="4.055" fill="#db7d50"/><circle cx="385.345" cy="466.46500000000003" r="4.055" fill="#f1653e"/><circle cx="425.90500000000003" cy="466.46500000000003" r="4.055" fill="#e75e45"/><circle cx="466.46500000000003" cy="466.46500000000003" r="4.055" fill="#e0b428"/><circle cx="507.035" cy="466.46500000000003" r="4.055" fill="#e17a33"/><circle cx="547.5949999999999" cy="466.46500000000003" r="4.055" fill="#e26d42"/><circle cx="588.155" cy="466.46500000000003" r="4.055" fill="#e36545"/><circle cx="628.7149999999999" cy="466.46500000000003" r="4.055" fill="#e0a62e"/><circle cx="669.285" cy="466.46500000000003" r="4.055" fill="#e27c3c"/><circle cx="709.8449999999999" cy="466.46500000000003" r="4.055" fill="#e17c31"/><circle cx="750.405" cy="466.46500000000003" r="4.055" fill="#fa6c37"/><circle cx="790.9649999999999" cy="466.46500000000003" r="4.055" fill="#e0af2a"/><circle cx="831.535" cy="466.46500000000003" r="4.055" fill="#f5693a"/><circle cx="872.0949999999999" cy="466.46500000000003" r="4.055" fill="#e25f49"/><circle cx="912.655" cy="466.46500000000003" r="4.055" fill="#df6c4c"/><circle cx="953.2149999999999" cy="466.46500000000003" r="4.055" fill="#e0694b"/><circle cx="993.785" cy="466.46500000000003" r="4.055" fill="#e17636"/><circle cx="1034.345" cy="466.46500000000003" r="4.055" fill="#df6c4c"/><circle cx="20.285" cy="507.035" r="4.055" fill="#e1634a"/><circle cx="60.845" cy="507.035" r="4.055" fill="#ed6241"/><circle cx="101.405" cy="507.035" r="4.055" fill="#e17239"/><circle cx="141.965" cy="507.035" r="4.055" fill="#e17e30"/><circle cx="182.535" cy="507.035" r="4.055" fill="#ec6241"/><circle cx="223.095" cy="507.035" r="4.055" fill="#e08e26"/><circle cx="263.65500000000003" cy="507.035" r="4.055" fill="#e2803b"/><circle cx="304.21500000000003" cy="507.035" r="4.055" fill="#da8251"/><circle cx="344.785" cy="507.035" r="4.055" fill="#e0b12a"/><circle cx="385.345" cy="507.035" r="4.055" fill="#e0872a"/><circle cx="425.90500000000003" cy="507.035" r="4.055" fill="#df9024"/><circle cx="466.46500000000003" cy="507.035" r="4.055" fill="#e0694b"/><circle cx="507.035" cy="507.035" r="4.055" fill="#e0694b"/><circle cx="547.5949999999999" cy="507.035" r="4.055" fill="#dfc821"/><circle cx="588.155" cy="507.035" r="4.055" fill="#dfc921"/><circle cx="628.7149999999999" cy="507.035" r="4.055" fill="#e2743f"/><circle cx="669.285" cy="507.035" r="4.055" fill="#ea6043"/><circle cx="709.8449999999999" cy="507.035" r="4.055" fill="#e2803b"/><circle cx="750.405" cy="507.035" r="4.055" fill="#e0b727"/><circle cx="790.9649999999999" cy="507.035" r="4.055" fill="#e36544"/><circle cx="831.535" cy="507.035" r="4.055" fill="#df6f4d"/><circle cx="872.0949999999999" cy="507.035" r="4.055" fill="#e45c47"/><circle cx="912.655" cy="507.035" r="4.055" fill="#dc7a4f"/><circle cx="953.2149999999999" cy="507.035" r="4.055" fill="#e75e45"/><circle cx="993.785" cy="507.035" r="4.055" fill="#fd6e35"/><circle cx="1034.345" cy="507.035" r="4.055" fill="#f86b38"/><circle cx="20.285" cy="547.5949999999999" r="4.055" fill="#db7d50"/><circle cx="60.845" cy="547.5949999999999" r="4.055" fill="#e26740"/><circle cx="101.405" cy="547.5949999999999" r="4.055" fill="#e35d49"/><circle cx="141.965" cy="547.5949999999999" r="4.055" fill="#dd744e"/><circle cx="182.535" cy="547.5949999999999" r="4.055" fill="#e17835"/><circle cx="223.095" cy="547.5949999999999" r="4.055" fill="#e95f44"/><circle cx="263.65500000000003" cy="547.5949999999999" r="4.055" fill="#e26f3b"/><circle cx="304.21500000000003" cy="547.5949999999999" r="4.055" fill="#f1653e"/><circle cx="344.785" cy="547.5949999999999" r="4.055" fill="#ec6142"/><circle cx="385.345" cy="547.5949999999999" r="4.055" fill="#e0812e"/><circle cx="425.90500000000003" cy="547.5949999999999" r="4.055" fill="#f76a39"/><circle cx="466.46500000000003" cy="547.5949999999999" r="4.055" fill="#e65d46"/><circle cx="507.035" cy="547.5949999999999" r="4.055" fill="#e35b48"/><circle cx="547.5949999999999" cy="547.5949999999999" r="4.055" fill="#da8352"/><circle cx="588.155" cy="547.5949999999999" r="4.055" fill="#e0862b"/><circle cx="628.7149999999999" cy="547.5949999999999" r="4.055" fill="#e18838"/><circle cx="669.285" cy="547.5949999999999" r="4.055" fill="#e95f44"/><circle cx="709.8449999999999" cy="547.5949999999999" r="4.055" fill="#e65d46"/><circle cx="750.405" cy="547.5949999999999" r="4.055" fill="#dd774f"/><circle cx="790.9649999999999" cy="547.5949999999999" r="4.055" fill="#dc794f"/><circle cx="831.535" cy="547.5949999999999" r="4.055" fill="#de714d"/><circle cx="872.0949999999999" cy="547.5949999999999" r="4.055" fill="#da8352"/><circle cx="912.655" cy="547.5949999999999" r="4.055" fill="#f2673c"/><circle cx="953.2149999999999" cy="547.5949999999999" r="4.055" fill="#e0664b"/><circle cx="993.785" cy="547.5949999999999" r="4.055" fill="#e0b927"/><circle cx="1034.345" cy="547.5949999999999" r="4.055" fill="#ec6142"/><circle cx="20.285" cy="588.155" r="4.055" fill="#e08b28"/><circle cx="60.845" cy="588.155" r="4.055" fill="#e08c27"/><circle cx="101.405" cy="588.155" r="4.055" fill="#e0674b"/><circle cx="141.965" cy="588.155" r="4.055" fill="#de744e"/><circle cx="182.535" cy="588.155" r="4.055" fill="#dfcc20"/><circle cx="223.095" cy="588.155" r="4.055" fill="#e95f44"/><circle cx="263.65500000000003" cy="588.155" r="4.055" fill="#e17f30"/><circle cx="304.21500000000003" cy="588.155" r="4.055" fill="#e85f44"/><circle cx="344.785" cy="588.155" r="4.055" fill="#e08e25"/><circle cx="385.345" cy="588.155" r="4.055" fill="#df9024"/><circle cx="425.90500000000003" cy="588.155" r="4.055" fill="#dc7c50"/><circle cx="466.46500000000003" cy="588.155" r="4.055" fill="#e0694b"/><circle cx="507.035" cy="588.155" r="4.055" fill="#de724e"/><circle cx="547.5949999999999" cy="588.155" r="4.055" fill="#e36044"/><circle cx="588.155" cy="588.155" r="4.055" fill="#e26d3c"/><circle cx="628.7149999999999" cy="588.155" r="4.055" fill="#e0ba26"/><circle cx="669.285" cy="588.155" r="4.055" fill="#e0b12a"/><circle cx="709.8449999999999" cy="588.155" r="4.055" fill="#de704d"/><circle cx="750.405" cy="588.155" r="4.055" fill="#f1653e"/><circle cx="790.9649999999999" cy="588.155" r="4.055" fill="#e0832d"/><circle cx="831.535" cy="588.155" r="4.055" fill="#e35c47"/><circle cx="872.0949999999999" cy="588.155" r="4.055" fill="#e35e46"/><circle cx="912.655" cy="588.155" r="4.055" fill="#e26c42"/><circle cx="953.2149999999999" cy="588.155" r="4.055" fill="#ea6043"/><circle cx="993.785" cy="588.155" r="4.055" fill="#ef643f"/><circle cx="1034.345" cy="588.155" r="4.055" fill="#e36345"/><circle cx="20.285" cy="628.7149999999999" r="4.055" fill="#db8151"/><circle cx="60.845" cy="628.7149999999999" r="4.055" fill="#dc7a4f"/><circle cx="101.405" cy="628.7149999999999" r="4.055" fill="#f76a39"/><circle cx="141.965" cy="628.7149999999999" r="4.055" fill="#f5693a"/><circle cx="182.535" cy="628.7149999999999" r="4.055" fill="#ff7033"/><circle cx="223.095" cy="628.7149999999999" r="4.055" fill="#df6c4c"/><circle cx="263.65500000000003" cy="628.7149999999999" r="4.055" fill="#da8352"/><circle cx="304.21500000000003" cy="628.7149999999999" r="4.055" fill="#da8352"/><circle cx="344.785" cy="628.7149999999999" r="4.055" fill="#e65d46"/><circle cx="385.345" cy="628.7149999999999" r="4.055" fill="#dfbf24"/><circle cx="425.90500000000003" cy="628.7149999999999" r="4.055" fill="#df6d4c"/><circle cx="466.46500000000003" cy="628.7149999999999" r="4.055" fill="#e2683f"/><circle cx="507.035" cy="628.7149999999999" r="4.055" fill="#e95f44"/><circle cx="547.5949999999999" cy="628.7149999999999" r="4.055" fill="#de704d"/><circle cx="588.155" cy="628.7149999999999" r="4.055" fill="#dd774f"/><circle cx="628.7149999999999" cy="628.7149999999999" r="4.055" fill="#dfbf25"/><circle cx="669.285" cy="628.7149999999999" r="4.055" fill="#e0822e"/><circle cx="709.8449999999999" cy="628.7149999999999" r="4.055" fill="#fd6f34"/><circle cx="750.405" cy="628.7149999999999" r="4.055" fill="#e17c31"/><circle cx="790.9649999999999" cy="628.7149999999999" r="4.055" fill="#e26542"/><circle cx="831.535" cy="628.7149999999999" r="4.055" fill="#e08829"/><circle cx="872.0949999999999" cy="628.7149999999999" r="4.055" fill="#e2624a"/><circle cx="912.655" cy="628.7149999999999" r="4.055" fill="#f5693a"/><circle cx="953.2149999999999" cy="628.7149999999999" r="4.055" fill="#e36144"/><circle cx="993.785" cy="628.7149999999999" r="4.055" fill="#ea6043"/><circle cx="1034.345" cy="628.7149999999999" r="4.055" fill="#e0b727"/></g></svg>