<svg width="917" height="487" viewBox="0 0 917 487" fill="none" xmlns="http://www.w3.org/2000/svg">
<rect x="0.37085" y="75.0164" width="776" height="300" rx="32" transform="rotate(-5.5197 0.37085 75.0164)" fill="#E35B48"/>
<g clip-path="url(#clip0_83_1076)">
<path d="M72.3214 102.222L70.3306 102.414C52.1897 104.167 38.9048 120.294 40.6578 138.435L40.8502 140.426C42.6033 158.567 58.7305 171.852 76.8714 170.099L78.8621 169.906C97.003 168.153 110.288 152.026 108.535 133.885L108.343 131.895C106.589 113.754 90.4622 100.469 72.3214 102.222Z" fill="#FFE5D1"/>
<path d="M72.3214 102.222L70.3306 102.414C52.1897 104.167 38.9048 120.294 40.6578 138.435L40.8502 140.426C42.6033 158.567 58.7305 171.852 76.8714 170.099L78.8621 169.906C97.003 168.153 110.288 152.026 108.535 133.885L108.343 131.895C106.589 113.754 90.4622 100.469 72.3214 102.222Z" stroke="#A42F1F" stroke-width="4"/>
<path d="M82.2117 137.967L82.5302 141.263L67.2352 142.741L66.7846 140.209L74.2781 125.312L77.6171 124.99L74.5857 131.39L70.8827 139.062L82.2117 137.967ZM78.521 124.902L80.5725 146.132L76.3733 146.537L74.3218 125.308L78.521 124.902Z" fill="#A42F1F"/>
<path d="M152.143 96.5174L150.152 96.7098C133.111 98.3566 120.631 113.506 122.278 130.548L122.47 132.539C124.117 149.58 139.267 162.06 156.308 160.413L158.299 160.221C175.34 158.574 187.82 143.424 186.173 126.383L185.981 124.392C184.334 107.35 169.184 94.8706 152.143 96.5174Z" fill="#FFF1E6"/>
<path d="M231.579 86.8317L229.589 87.024C211.448 88.7771 198.163 104.904 199.916 123.045L200.108 125.036C201.861 143.177 217.989 156.462 236.129 154.709L238.12 154.516C256.261 152.763 269.546 136.636 267.793 118.495L267.601 116.504C265.848 98.3636 249.72 85.0786 231.579 86.8317Z" fill="#FFE5D1"/>
<path d="M231.579 86.8317L229.589 87.024C211.448 88.7771 198.163 104.904 199.916 123.045L200.108 125.036C201.861 143.177 217.989 156.462 236.129 154.709L238.12 154.516C256.261 152.763 269.546 136.636 267.793 118.495L267.601 116.504C265.848 98.3636 249.72 85.0786 231.579 86.8317Z" stroke="#A42F1F" stroke-width="4"/>
<path d="M233.109 128.08L233.426 131.361L218.904 132.764L218.633 129.965L224.789 121.938C225.405 121.103 225.883 120.375 226.226 119.753C226.567 119.122 226.803 118.564 226.933 118.081C227.072 117.587 227.12 117.126 227.078 116.698C227.016 116.057 226.857 115.518 226.599 115.081C226.34 114.636 225.989 114.307 225.547 114.094C225.114 113.881 224.596 113.803 223.994 113.862C223.352 113.924 222.813 114.133 222.377 114.489C221.95 114.844 221.642 115.31 221.452 115.888C221.273 116.464 221.216 117.103 221.284 117.803L217.07 118.21C216.948 116.946 217.138 115.76 217.639 114.652C218.14 113.534 218.908 112.612 219.947 111.883C220.984 111.145 222.256 110.704 223.763 110.558C225.25 110.414 226.527 110.536 227.595 110.923C228.672 111.3 229.516 111.915 230.129 112.768C230.749 113.611 231.12 114.654 231.24 115.899C231.307 116.598 231.262 117.295 231.103 117.987C230.944 118.669 230.686 119.362 230.332 120.063C229.987 120.754 229.555 121.462 229.037 122.19C228.518 122.917 227.939 123.674 227.299 124.462L224.01 128.959L233.109 128.08ZM239.15 118.254L241.396 118.037C242.114 117.968 242.696 117.789 243.139 117.501C243.58 117.203 243.892 116.82 244.073 116.351C244.262 115.872 244.327 115.331 244.269 114.728C244.216 114.184 244.063 113.713 243.809 113.315C243.563 112.907 243.216 112.607 242.765 112.416C242.314 112.214 241.762 112.144 241.111 112.207C240.596 112.257 240.13 112.405 239.712 112.652C239.294 112.898 238.972 113.219 238.746 113.613C238.519 114.008 238.43 114.468 238.481 114.993L234.268 115.4C234.155 114.234 234.368 113.188 234.906 112.263C235.454 111.336 236.235 110.579 237.247 109.991C238.26 109.402 239.403 109.047 240.677 108.924C242.115 108.785 243.397 108.896 244.521 109.258C245.644 109.611 246.549 110.205 247.239 111.041C247.927 111.877 248.336 112.956 248.464 114.278C248.529 114.949 248.436 115.615 248.186 116.277C247.935 116.929 247.543 117.536 247.008 118.098C246.482 118.649 245.821 119.116 245.024 119.497C244.226 119.868 243.312 120.104 242.281 120.203L239.366 120.485L239.15 118.254ZM239.459 121.447L239.249 119.275L242.164 118.993C243.321 118.881 244.35 118.914 245.25 119.092C246.15 119.27 246.92 119.578 247.562 120.017C248.202 120.445 248.705 120.981 249.07 121.622C249.435 122.254 249.658 122.973 249.736 123.78C249.831 124.772 249.727 125.675 249.423 126.489C249.118 127.293 248.646 127.996 248.008 128.598C247.379 129.198 246.622 129.683 245.735 130.053C244.848 130.414 243.865 130.646 242.786 130.751C241.891 130.837 240.999 130.8 240.111 130.641C239.231 130.471 238.418 130.172 237.67 129.744C236.931 129.305 236.316 128.727 235.825 128.009C235.342 127.28 235.05 126.391 234.948 125.342L239.163 124.934C239.215 125.479 239.399 125.951 239.712 126.353C240.025 126.754 240.431 127.054 240.932 127.251C241.441 127.447 241.992 127.516 242.585 127.459C243.256 127.394 243.818 127.217 244.27 126.928C244.732 126.628 245.068 126.243 245.277 125.771C245.495 125.289 245.575 124.746 245.517 124.144C245.442 123.366 245.241 122.757 244.914 122.318C244.586 121.869 244.149 121.558 243.603 121.385C243.056 121.213 242.423 121.161 241.704 121.23L239.459 121.447Z" fill="#A42F1F"/>
<path d="M311.209 79.1366L309.218 79.329C291.077 81.082 277.792 97.2093 279.545 115.35L279.737 117.341C281.49 135.482 297.618 148.767 315.759 147.014L317.749 146.821C335.89 145.068 349.175 128.941 347.422 110.8L347.23 108.809C345.477 90.6685 329.349 77.3835 311.209 79.1366Z" fill="#FFE5D1"/>
<path d="M311.209 79.1366L309.218 79.329C291.077 81.082 277.792 97.2093 279.545 115.35L279.737 117.341C281.49 135.482 297.618 148.767 315.759 147.014L317.749 146.821C335.89 145.068 349.175 128.941 347.422 110.8L347.23 108.809C345.477 90.6685 329.349 77.3835 311.209 79.1366Z" stroke="#A42F1F" stroke-width="4"/>
<path d="M301.632 112.216L303.878 111.999C304.597 111.93 305.178 111.751 305.621 111.463C306.063 111.165 306.375 110.782 306.555 110.313C306.745 109.833 306.81 109.292 306.752 108.69C306.699 108.145 306.545 107.675 306.291 107.277C306.045 106.869 305.698 106.569 305.247 106.377C304.797 106.176 304.245 106.106 303.593 106.169C303.079 106.219 302.612 106.367 302.195 106.614C301.777 106.86 301.455 107.181 301.228 107.575C301.001 107.97 300.913 108.43 300.964 108.955L296.75 109.362C296.637 108.196 296.851 107.15 297.389 106.224C297.936 105.298 298.717 104.541 299.73 103.953C300.742 103.364 301.886 103.008 303.159 102.885C304.597 102.746 305.879 102.858 307.003 103.22C308.126 103.573 309.032 104.167 309.721 105.003C310.41 105.839 310.818 106.918 310.946 108.24C311.011 108.911 310.918 109.577 310.669 110.239C310.417 110.891 310.025 111.498 309.49 112.06C308.965 112.611 308.304 113.077 307.507 113.459C306.709 113.83 305.794 114.066 304.764 114.165L301.848 114.447L301.632 112.216ZM301.941 115.409L301.731 113.237L304.647 112.955C305.804 112.843 306.832 112.876 307.732 113.054C308.632 113.232 309.403 113.54 310.044 113.979C310.684 114.407 311.187 114.943 311.553 115.584C311.918 116.216 312.14 116.935 312.218 117.742C312.313 118.734 312.21 119.636 311.906 120.451C311.601 121.255 311.129 121.958 310.49 122.559C309.862 123.16 309.104 123.645 308.217 124.015C307.33 124.376 306.347 124.608 305.268 124.712C304.374 124.799 303.482 124.762 302.594 124.603C301.714 124.433 300.9 124.134 300.152 123.706C299.414 123.267 298.798 122.689 298.307 121.971C297.825 121.242 297.533 120.353 297.431 119.303L301.645 118.896C301.697 119.441 301.881 119.913 302.194 120.315C302.508 120.716 302.914 121.015 303.414 121.212C303.924 121.408 304.475 121.478 305.067 121.421C305.738 121.356 306.3 121.179 306.753 120.89C307.214 120.59 307.55 120.204 307.759 119.733C307.978 119.251 308.058 118.708 308 118.106C307.925 117.328 307.723 116.719 307.397 116.28C307.069 115.831 306.631 115.52 306.085 115.347C305.539 115.174 304.906 115.123 304.186 115.192L301.941 115.409ZM328.762 109.55L329.117 113.224C329.271 114.819 329.234 116.21 329.006 117.4C328.776 118.58 328.376 119.57 327.807 120.371C327.245 121.161 326.544 121.773 325.703 122.208C324.862 122.642 323.907 122.911 322.837 123.015C321.982 123.097 321.174 123.067 320.415 122.925C319.655 122.773 318.956 122.492 318.317 122.083C317.689 121.672 317.128 121.133 316.631 120.465C316.143 119.786 315.74 118.962 315.42 117.992C315.101 117.022 314.879 115.895 314.755 114.612L314.4 110.938C314.246 109.344 314.284 107.962 314.515 106.792C314.754 105.611 315.155 104.625 315.715 103.835C316.287 103.044 316.994 102.436 317.836 102.012C318.676 101.577 319.631 101.308 320.7 101.205C321.556 101.122 322.358 101.158 323.11 101.311C323.869 101.453 324.567 101.724 325.205 102.124C325.841 102.523 326.403 103.062 326.891 103.741C327.378 104.411 327.78 105.23 328.1 106.2C328.419 107.16 328.639 108.277 328.762 109.55ZM324.957 114.186L324.493 109.389C324.419 108.621 324.311 107.954 324.168 107.389C324.035 106.823 323.866 106.349 323.662 105.967C323.457 105.574 323.221 105.263 322.954 105.034C322.687 104.805 322.392 104.647 322.069 104.561C321.748 104.474 321.397 104.449 321.017 104.486C320.542 104.532 320.127 104.665 319.776 104.885C319.434 105.105 319.157 105.431 318.943 105.863C318.729 106.286 318.586 106.84 318.515 107.524C318.452 108.197 318.468 109.01 318.56 109.962L319.023 114.759C319.097 115.527 319.202 116.199 319.336 116.775C319.48 117.349 319.654 117.838 319.86 118.24C320.074 118.631 320.31 118.947 320.569 119.187C320.837 119.416 321.131 119.574 321.454 119.66C321.786 119.746 322.142 119.771 322.52 119.734C322.987 119.689 323.391 119.557 323.733 119.337C324.084 119.107 324.365 118.776 324.579 118.343C324.801 117.9 324.943 117.337 325.004 116.654C325.066 115.971 325.05 115.148 324.957 114.186Z" fill="#A42F1F"/>
<path d="M391.03 73.4325L389.039 73.6249C371.998 75.2717 359.518 90.4215 361.165 107.463L361.357 109.454C363.004 126.495 378.154 138.975 395.195 137.328L397.186 137.136C414.227 135.489 426.707 120.339 425.06 103.298L424.868 101.307C423.221 84.2655 408.071 71.7857 391.03 73.4325Z" fill="#FFF1E6"/>
<path d="M470.659 65.7374L468.668 65.9298C451.627 67.5766 439.147 82.7264 440.794 99.7679L440.986 101.759C442.633 118.8 457.783 131.28 474.824 129.633L476.815 129.441C493.856 127.794 506.336 112.644 504.689 95.6026L504.497 93.6119C502.85 76.5704 487.7 64.0906 470.659 65.7374Z" fill="#FFF1E6"/>
<path d="M550.096 56.0516L548.105 56.244C529.964 57.9971 516.679 74.1243 518.432 92.2652L518.625 94.2559C520.378 112.397 536.505 125.682 554.646 123.929L556.637 123.736C574.777 121.983 588.062 105.856 586.309 87.7151L586.117 85.7244C584.364 67.5835 568.237 54.2986 550.096 56.0516Z" fill="#FFE5D1"/>
<path d="M550.096 56.0516L548.105 56.244C529.964 57.9971 516.679 74.1243 518.432 92.2652L518.625 94.2559C520.378 112.397 536.505 125.682 554.646 123.929L556.637 123.736C574.777 121.983 588.062 105.856 586.309 87.7151L586.117 85.7244C584.364 67.5835 568.237 54.2986 550.096 56.0516Z" stroke="#A42F1F" stroke-width="4"/>
<path d="M546.181 79.489L546.793 79.4298L547.117 82.7834L546.869 82.8073C545.761 82.9144 544.79 83.175 543.957 83.5891C543.124 84.0032 542.436 84.5455 541.892 85.2162C541.358 85.8761 540.971 86.6493 540.733 87.5357C540.505 88.4212 540.442 89.3936 540.544 90.4531L540.885 93.9816C540.959 94.7398 541.096 95.4035 541.298 95.9726C541.509 96.531 541.774 96.9911 542.093 97.3527C542.421 97.7036 542.79 97.9575 543.198 98.1143C543.605 98.2613 544.05 98.3115 544.536 98.2645C544.993 98.2204 545.397 98.0833 545.747 97.8532C546.108 97.6221 546.402 97.319 546.631 96.9436C546.869 96.5576 547.033 96.12 547.122 95.6306C547.221 95.1304 547.243 94.5937 547.187 94.0201C547.132 93.4466 547.008 92.9239 546.815 92.452C546.632 91.9791 546.388 91.5808 546.081 91.2572C545.775 90.9238 545.418 90.6788 545.01 90.522C544.602 90.3652 544.155 90.3102 543.67 90.3571C543.009 90.421 542.44 90.6329 541.965 90.9928C541.498 91.342 541.147 91.7684 540.911 92.2719C540.675 92.7755 540.572 93.2907 540.604 93.8174L539.257 93.1235C539.214 92.3723 539.3 91.6477 539.517 90.9498C539.744 90.2508 540.086 89.6193 540.541 89.0553C541.006 88.4806 541.583 88.0127 542.275 87.6516C542.964 87.2808 543.762 87.0517 544.666 86.9644C545.657 86.8686 546.545 86.974 547.331 87.2808C548.126 87.5865 548.808 88.0455 549.377 88.6577C549.946 89.2698 550.399 89.9962 550.736 90.8369C551.072 91.6776 551.288 92.5888 551.382 93.5706C551.482 94.6009 551.404 95.5748 551.149 96.4923C550.904 97.4088 550.498 98.228 549.93 98.9501C549.372 99.6712 548.673 100.259 547.834 100.713C546.995 101.166 546.031 101.446 544.942 101.551C543.814 101.66 542.77 101.555 541.806 101.236C540.852 100.907 540.009 100.399 539.275 99.7148C538.542 99.0302 537.946 98.19 537.487 97.1945C537.038 96.1979 536.754 95.0873 536.635 93.8625L536.477 92.2295C536.312 90.5187 536.409 88.9298 536.767 87.4627C537.135 85.985 537.739 84.6805 538.582 83.5493C539.423 82.4084 540.482 81.4869 541.758 80.7847C543.034 80.0825 544.509 79.6506 546.181 79.489ZM568.308 93.127C568.437 94.4587 568.234 95.6115 567.7 96.5853C567.165 97.5495 566.377 98.3173 565.333 98.8891C564.298 99.4503 563.095 99.7971 561.724 99.9296C560.354 100.062 559.102 99.9524 557.969 99.6007C556.836 99.2392 555.909 98.6372 555.19 97.7942C554.47 96.9416 554.046 95.8494 553.917 94.5177C553.831 93.6234 553.932 92.7993 554.223 92.0451C554.512 91.2814 554.952 90.6109 555.544 90.0338C556.145 89.4459 556.869 88.9737 557.717 88.617C558.565 88.2506 559.504 88.0176 560.534 87.918C561.915 87.7846 563.172 87.9083 564.308 88.2891C565.444 88.6699 566.366 89.2725 567.073 90.097C567.781 90.9214 568.193 91.9314 568.308 93.127ZM564.052 93.2587C563.989 92.6074 563.81 92.0606 563.512 91.6185C563.222 91.1658 562.842 90.8345 562.371 90.625C561.899 90.4155 561.367 90.3394 560.774 90.3967C560.18 90.454 559.673 90.6305 559.251 90.9265C558.828 91.2225 558.513 91.6208 558.306 92.1215C558.108 92.6115 558.041 93.1823 558.104 93.8335C558.166 94.475 558.341 95.0173 558.629 95.4605C558.927 95.9026 559.312 96.2284 559.783 96.438C560.264 96.6368 560.805 96.7072 561.407 96.649C562.01 96.5907 562.518 96.4189 562.933 96.1336C563.355 95.8377 563.661 95.4451 563.849 94.9561C564.046 94.466 564.114 93.9002 564.052 93.2587ZM566.91 83.3873C567.014 84.4662 566.82 85.4514 566.327 86.3427C565.834 87.2243 565.099 87.9478 564.124 88.513C563.158 89.0772 562.024 89.4223 560.721 89.5482C559.409 89.675 558.22 89.5544 557.155 89.1865C556.088 88.8186 555.229 88.2491 554.576 87.4783C553.921 86.6979 553.542 85.7681 553.438 84.6892C553.314 83.406 553.496 82.2994 553.986 81.369C554.483 80.4282 555.215 79.6805 556.182 79.1259C557.158 78.5705 558.293 78.2303 559.586 78.1053C560.899 77.9785 562.082 78.0947 563.137 78.4538C564.202 78.812 565.063 79.4057 565.723 80.2348C566.39 81.0533 566.786 82.1041 566.91 83.3873ZM562.73 83.9825C562.674 83.409 562.524 82.9232 562.28 82.5249C562.034 82.117 561.711 81.8146 561.309 81.618C560.917 81.4204 560.449 81.3479 559.904 81.4005C559.38 81.4512 558.939 81.6066 558.581 81.8668C558.233 82.1261 557.978 82.4795 557.815 82.9269C557.661 83.3637 557.613 83.8785 557.67 84.4714C557.726 85.0449 557.871 85.5411 558.109 85.9596C558.354 86.3676 558.678 86.6747 559.081 86.8811C559.482 87.0875 559.951 87.1649 560.486 87.1133C561.021 87.0615 561.461 86.8963 561.807 86.6177C562.163 86.338 562.417 85.9749 562.57 85.5285C562.732 85.0714 562.785 84.556 562.73 83.9825Z" fill="#A42F1F"/>
<path d="M629.725 48.3566L627.734 48.5489C609.593 50.302 596.308 66.4292 598.061 84.5701L598.254 86.5609C600.007 104.702 616.134 117.987 634.275 116.234L636.265 116.041C654.406 114.288 667.691 98.161 665.938 80.0201L665.746 78.0293C663.993 59.8885 647.866 46.6035 629.725 48.3566Z" fill="#FFE5D1"/>
<path d="M629.725 48.3566L627.734 48.5489C609.593 50.302 596.308 66.4292 598.061 84.5701L598.254 86.5609C600.007 104.702 616.134 117.987 634.275 116.234L636.265 116.041C654.406 114.288 667.691 98.161 665.938 80.0201L665.746 78.0293C663.993 59.8885 647.866 46.6035 629.725 48.3566Z" stroke="#A42F1F" stroke-width="4"/>
<path d="M629.417 71.666L629.636 73.9259L623.26 93.6884L618.828 94.1168L625.302 75.3749L614.731 76.3964L614.414 73.1158L629.417 71.666ZM642.376 70.3695L644.432 91.6425L640.232 92.0483L638.644 75.6161L633.755 77.7074L633.435 74.3976L641.924 70.4132L642.376 70.3695Z" fill="#A42F1F"/>
<path d="M709.546 42.6522L707.555 42.8446C690.514 44.4914 678.034 59.6412 679.681 76.6827L679.873 78.6734C681.52 95.7148 696.67 108.195 713.712 106.548L715.702 106.355C732.744 104.709 745.223 89.5588 743.577 72.5174L743.384 70.5266C741.737 53.4852 726.588 41.0054 709.546 42.6522Z" fill="#FFF1E6"/>
<path d="M80.0164 181.851L78.0257 182.043C59.8848 183.796 46.5998 199.924 48.3529 218.065L48.5453 220.055C50.2984 238.196 66.4256 251.481 84.5665 249.728L86.5572 249.536C104.698 247.783 117.983 231.655 116.23 213.514L116.038 211.524C114.285 193.383 98.1573 180.098 80.0164 181.851Z" fill="#FFE5D1"/>
<path d="M80.0164 181.851L78.0257 182.043C59.8848 183.796 46.5998 199.924 48.3529 218.065L48.5453 220.055C50.2984 238.196 66.4256 251.481 84.5665 249.728L86.5572 249.536C104.698 247.783 117.983 231.655 116.23 213.514L116.038 211.524C114.285 193.383 98.1573 180.098 80.0164 181.851Z" stroke="#A42F1F" stroke-width="4"/>
<path d="M84.5618 204.47L85.1743 204.411L85.4984 207.765L85.2504 207.789C84.1424 207.896 83.1717 208.156 82.3385 208.57C81.5054 208.984 80.8171 209.527 80.2735 210.197C79.7389 210.858 79.3524 211.631 79.1143 212.518C78.8859 213.403 78.823 214.375 78.9253 215.434L79.2663 218.963C79.3396 219.721 79.4773 220.385 79.6795 220.954C79.8905 221.513 80.1556 221.972 80.4751 222.334C80.8034 222.685 81.1713 222.939 81.5788 223.096C81.9855 223.243 82.4318 223.293 82.9178 223.246C83.3746 223.201 83.7785 223.065 84.129 222.834C84.4893 222.604 84.7838 222.301 85.0125 221.925C85.2499 221.539 85.4136 221.102 85.5036 220.612C85.6025 220.112 85.6242 219.575 85.5688 219.002C85.5134 218.429 85.3892 217.905 85.1965 217.434C85.0135 216.961 84.7689 216.563 84.4629 216.239C84.156 215.905 83.7988 215.661 83.3911 215.503C82.9835 215.347 82.5367 215.291 82.0507 215.338C81.3896 215.402 80.8216 215.615 80.3461 215.974C79.8796 216.324 79.5282 216.75 79.2924 217.254C79.0565 217.757 78.9543 218.272 78.9856 218.799L77.6381 218.105C77.5949 217.353 77.682 216.63 77.8991 215.931C78.1258 215.232 78.467 214.601 78.9227 214.037C79.3871 213.462 79.9649 212.994 80.6561 212.633C81.3462 212.262 82.1434 212.033 83.0474 211.946C84.0388 211.85 84.9272 211.956 85.7121 212.262C86.507 212.568 87.1891 213.027 87.7584 213.639C88.3277 214.252 88.7806 214.977 89.117 215.819C89.4533 216.659 89.6688 217.57 89.7638 218.552C89.8633 219.583 89.7858 220.557 89.531 221.473C89.2859 222.39 88.8796 223.21 88.3116 223.932C87.7534 224.653 87.0546 225.24 86.2154 225.694C85.3763 226.148 84.4125 226.428 83.3237 226.533C82.1962 226.642 81.1511 226.537 80.1881 226.218C79.2341 225.888 78.3903 225.381 77.657 224.696C76.9237 224.012 76.3274 223.171 75.8682 222.176C75.4187 221.179 75.1347 220.069 75.0164 218.844L74.8585 217.211C74.6932 215.5 74.7899 213.911 75.1484 212.444C75.5159 210.967 76.1208 209.662 76.9631 208.531C77.8045 207.39 78.8634 206.469 80.1396 205.766C81.4159 205.064 82.8899 204.632 84.5618 204.47Z" fill="#A42F1F"/>
<path d="M159.645 174.156L157.655 174.348C139.514 176.101 126.229 192.229 127.982 210.369L128.174 212.36C129.927 230.501 146.054 243.786 164.195 242.033L166.186 241.841C184.327 240.088 197.612 223.96 195.859 205.819L195.667 203.829C193.913 185.688 177.786 172.403 159.645 174.156Z" fill="#FFE5D1"/>
<path d="M159.645 174.156L157.655 174.348C139.514 176.101 126.229 192.229 127.982 210.369L128.174 212.36C129.927 230.501 146.054 243.786 164.195 242.033L166.186 241.841C184.327 240.088 197.612 223.96 195.859 205.819L195.667 203.829C193.913 185.688 177.786 172.403 159.645 174.156Z" stroke="#A42F1F" stroke-width="4"/>
<path d="M155.149 197.826L157.205 219.099L153.006 219.505L151.418 203.072L146.528 205.164L146.208 201.854L154.698 197.87L155.149 197.826ZM172.297 196.169L174.352 217.442L170.153 217.848L168.565 201.415L163.675 203.507L163.356 200.197L171.845 196.213L172.297 196.169Z" fill="#A42F1F"/>
<path d="M239.467 168.452L237.476 168.644C220.435 170.291 207.955 185.441 209.602 202.482L209.794 204.473C211.441 221.514 226.591 233.994 243.632 232.347L245.623 232.155C262.664 230.508 275.144 215.358 273.497 198.317L273.305 196.326C271.658 179.285 256.508 166.805 239.467 168.452Z" fill="#FFF1E6"/>
<path d="M318.904 158.766L316.913 158.958C298.772 160.711 285.487 176.838 287.24 194.979L287.432 196.97C289.186 215.111 305.313 228.396 323.454 226.643L325.444 226.45C343.585 224.697 356.87 208.57 355.117 190.429L354.925 188.439C353.172 170.298 337.045 157.013 318.904 158.766Z" fill="#FFE5D1"/>
<path d="M318.904 158.766L316.913 158.958C298.772 160.711 285.487 176.838 287.24 194.979L287.432 196.97C289.186 215.111 305.313 228.396 323.454 226.643L325.444 226.45C343.585 224.697 356.87 208.57 355.117 190.429L354.925 188.439C353.172 170.298 337.045 157.013 318.904 158.766Z" stroke="#A42F1F" stroke-width="4"/>
<path d="M309.327 191.845L311.572 191.628C312.292 191.559 312.873 191.38 313.316 191.092C313.758 190.794 314.07 190.41 314.25 189.942C314.439 189.462 314.505 188.922 314.446 188.318C314.394 187.774 314.24 187.304 313.985 186.906C313.74 186.498 313.393 186.198 312.942 186.006C312.492 185.805 311.94 185.736 311.288 185.799C310.774 185.848 310.307 185.996 309.89 186.242C309.471 186.489 309.15 186.81 308.923 187.205C308.696 187.599 308.608 188.059 308.659 188.583L304.445 188.991C304.332 187.824 304.545 186.779 305.084 185.854C305.631 184.928 306.412 184.17 307.425 183.582C308.437 182.993 309.58 182.637 310.853 182.514C312.292 182.375 313.573 182.487 314.697 182.849C315.821 183.202 316.727 183.796 317.416 184.633C318.105 185.468 318.513 186.547 318.641 187.869C318.705 188.54 318.613 189.206 318.364 189.868C318.112 190.52 317.72 191.128 317.185 191.689C316.66 192.241 315.999 192.706 315.202 193.088C314.404 193.459 313.489 193.694 312.459 193.794L309.542 194.076L309.327 191.845ZM309.635 195.038L309.425 192.865L312.342 192.584C313.499 192.472 314.526 192.505 315.427 192.683C316.327 192.861 317.098 193.169 317.738 193.607C318.379 194.037 318.881 194.572 319.248 195.214C319.613 195.845 319.835 196.564 319.912 197.371C320.008 198.363 319.905 199.265 319.601 200.079C319.296 200.884 318.824 201.587 318.185 202.188C317.557 202.788 316.799 203.274 315.912 203.644C315.025 204.005 314.042 204.237 312.963 204.341C312.069 204.428 311.177 204.391 310.289 204.232C309.408 204.062 308.595 203.763 307.847 203.335C307.109 202.896 306.493 202.317 306.002 201.6C305.519 200.871 305.228 199.982 305.126 198.932L309.339 198.525C309.392 199.069 309.575 199.542 309.888 199.944C310.203 200.345 310.609 200.645 311.108 200.842C311.619 201.037 312.17 201.107 312.762 201.049C313.433 200.985 313.995 200.808 314.448 200.519C314.909 200.219 315.245 199.833 315.454 199.362C315.673 198.879 315.753 198.337 315.695 197.734C315.62 196.957 315.418 196.348 315.091 195.909C314.764 195.46 314.326 195.149 313.78 194.976C313.234 194.803 312.601 194.752 311.881 194.821L309.635 195.038ZM337.579 198.357L337.896 201.638L323.374 203.041L323.103 200.242L329.26 192.215C329.875 191.381 330.355 190.652 330.696 190.03C331.038 189.398 331.274 188.841 331.404 188.358C331.542 187.864 331.591 187.403 331.549 186.975C331.487 186.333 331.328 185.795 331.07 185.359C330.811 184.913 330.46 184.584 330.018 184.371C329.584 184.158 329.068 184.08 328.464 184.139C327.823 184.201 327.284 184.409 326.847 184.766C326.42 185.121 326.113 185.588 325.923 186.164C325.743 186.742 325.687 187.38 325.755 188.08L321.541 188.487C321.419 187.223 321.608 186.037 322.11 184.93C322.61 183.811 323.379 182.888 324.417 182.16C325.455 181.423 326.726 180.98 328.233 180.835C329.721 180.691 330.998 180.813 332.065 181.201C333.143 181.577 333.987 182.192 334.599 183.046C335.22 183.888 335.591 184.931 335.711 186.175C335.779 186.876 335.732 187.572 335.574 188.264C335.414 188.946 335.157 189.638 334.803 190.34C334.458 191.03 334.026 191.739 333.508 192.466C332.989 193.193 332.41 193.951 331.77 194.739L328.482 199.236L337.579 198.357Z" fill="#A42F1F"/>
<path d="M398.725 153.061L396.734 153.254C379.693 154.901 367.213 170.05 368.86 187.092L369.052 189.083C370.699 206.124 385.849 218.604 402.89 216.957L404.881 216.765C421.922 215.118 434.402 199.968 432.755 182.927L432.563 180.936C430.916 163.894 415.766 151.415 398.725 153.061Z" fill="#FFF1E6"/>
<path d="M478.162 143.376L476.171 143.568C458.03 145.321 444.745 161.448 446.498 179.589L446.691 181.58C448.444 199.721 464.571 213.006 482.712 211.253L484.702 211.06C502.843 209.307 516.128 193.18 514.375 175.039L514.183 173.048C512.43 154.908 496.303 141.623 478.162 143.376Z" fill="#FFE5D1"/>
<path d="M478.162 143.376L476.171 143.568C458.03 145.321 444.745 161.448 446.498 179.589L446.691 181.58C448.444 199.721 464.571 213.006 482.712 211.253L484.702 211.06C502.843 209.307 516.128 193.18 514.375 175.039L514.183 173.048C512.43 154.908 496.303 141.623 478.162 143.376Z" stroke="#A42F1F" stroke-width="4"/>
<path d="M468.503 179.259L465.072 178.781L465.242 167.904L477.17 166.752L477.498 170.149L469.026 170.967L468.957 175.727C469.223 175.535 469.633 175.319 470.189 175.079C470.744 174.829 471.375 174.67 472.085 174.601C473.115 174.502 474.044 174.573 474.873 174.817C475.701 175.061 476.422 175.463 477.035 176.022C477.658 176.579 478.157 177.286 478.535 178.143C478.912 178.999 479.155 179.986 479.263 181.104C479.354 182.046 479.294 182.96 479.085 183.844C478.876 184.718 478.507 185.518 477.978 186.246C477.45 186.964 476.757 187.557 475.899 188.022C475.041 188.488 474 188.78 472.775 188.898C471.862 188.986 470.964 188.935 470.082 188.746C469.21 188.555 468.408 188.226 467.676 187.757C466.953 187.287 466.351 186.693 465.87 185.975C465.398 185.245 465.104 184.39 464.989 183.41L469.16 183.007C469.276 183.605 469.482 184.11 469.777 184.522C470.081 184.925 470.458 185.222 470.908 185.414C471.358 185.606 471.87 185.674 472.443 185.619C472.978 185.567 473.425 185.421 473.784 185.18C474.144 184.939 474.423 184.628 474.621 184.246C474.819 183.854 474.948 183.41 475.008 182.913C475.077 182.406 475.083 181.866 475.027 181.292C474.972 180.719 474.854 180.206 474.672 179.752C474.492 179.298 474.244 178.915 473.928 178.602C473.614 178.289 473.229 178.062 472.773 177.919C472.329 177.776 471.819 177.732 471.246 177.788C470.467 177.863 469.877 178.042 469.472 178.327C469.078 178.61 468.755 178.921 468.503 179.259ZM490.813 165.389L492.868 186.662L488.669 187.068L487.081 170.635L482.192 172.727L481.872 169.417L490.361 165.433L490.813 165.389Z" fill="#A42F1F"/>
<path d="M557.983 137.671L555.992 137.864C538.951 139.51 526.471 154.66 528.118 171.702L528.31 173.692C529.957 190.734 545.107 203.214 562.148 201.567L564.139 201.374C581.18 199.728 593.66 184.578 592.013 167.536L591.821 165.546C590.174 148.504 575.024 136.024 557.983 137.671Z" fill="#FFF1E6"/>
<path d="M637.42 127.986L635.429 128.178C617.288 129.931 604.003 146.058 605.756 164.199L605.949 166.19C607.702 184.331 623.829 197.616 641.97 195.863L643.961 195.67C662.101 193.917 675.386 177.79 673.633 159.649L673.441 157.658C671.688 139.518 655.561 126.233 637.42 127.986Z" fill="#FFE5D1"/>
<path d="M637.42 127.986L635.429 128.178C617.288 129.931 604.003 146.058 605.756 164.199L605.949 166.19C607.702 184.331 623.829 197.616 641.97 195.863L643.961 195.67C662.101 193.917 675.386 177.79 673.633 159.649L673.441 157.658C671.688 139.518 655.561 126.233 637.42 127.986Z" stroke="#A42F1F" stroke-width="4"/>
<path d="M637.112 151.295L637.331 153.555L630.955 173.318L626.523 173.746L632.997 155.004L622.426 156.026L622.109 152.745L637.112 151.295ZM644.908 162.212L641.477 161.734L641.647 150.857L653.574 149.705L653.902 153.102L645.431 153.92L645.361 158.68C645.627 158.488 646.038 158.272 646.593 158.032C647.148 157.782 647.781 157.622 648.49 157.554C649.52 157.454 650.45 157.526 651.278 157.77C652.105 158.014 652.826 158.416 653.44 158.974C654.062 159.532 654.563 160.239 654.94 161.096C655.317 161.952 655.559 162.939 655.667 164.057C655.758 164.999 655.7 165.913 655.491 166.796C655.281 167.671 654.912 168.471 654.384 169.199C653.854 169.917 653.161 170.51 652.304 170.975C651.446 171.441 650.405 171.732 649.18 171.851C648.266 171.939 647.369 171.888 646.487 171.699C645.615 171.508 644.813 171.179 644.081 170.71C643.359 170.24 642.757 169.645 642.275 168.927C641.802 168.198 641.508 167.343 641.395 166.363L645.564 165.96C645.681 166.558 645.887 167.062 646.182 167.475C646.486 167.878 646.862 168.175 647.313 168.367C647.763 168.559 648.275 168.627 648.849 168.572C649.383 168.52 649.83 168.374 650.19 168.132C650.548 167.892 650.827 167.581 651.026 167.199C651.224 166.807 651.353 166.362 651.412 165.866C651.481 165.359 651.488 164.819 651.432 164.245C651.377 163.672 651.259 163.159 651.078 162.705C650.896 162.251 650.648 161.868 650.334 161.555C650.019 161.242 649.633 161.015 649.179 160.872C648.733 160.729 648.223 160.685 647.65 160.741C646.872 160.816 646.282 160.995 645.877 161.279C645.483 161.563 645.159 161.874 644.908 162.212Z" fill="#A42F1F"/>
<path d="M717.241 122.281L715.251 122.474C698.209 124.121 685.729 139.27 687.376 156.312L687.568 158.303C689.215 175.344 704.365 187.824 721.407 186.177L723.397 185.985C740.439 184.338 752.919 169.188 751.272 152.147L751.079 150.156C749.433 133.114 734.283 120.635 717.241 122.281Z" fill="#FFF1E6"/>
<path d="M87.9039 263.471L85.9131 263.663C68.8717 265.31 56.3919 280.46 58.0387 297.501L58.2311 299.492C59.8779 316.533 75.0277 329.013 92.0692 327.366L94.0599 327.174C111.101 325.527 123.581 310.377 121.934 293.336L121.742 291.345C120.095 274.304 104.945 261.824 87.9039 263.471Z" fill="#FFF1E6"/>
<path d="M167.34 253.785L165.35 253.977C147.209 255.73 133.924 271.857 135.677 289.998L135.869 291.989C137.622 310.13 153.75 323.415 171.89 321.662L173.881 321.469C192.022 319.716 205.307 303.589 203.554 285.448L203.362 283.458C201.609 265.317 185.481 252.032 167.34 253.785Z" fill="#FFE5D1"/>
<path d="M167.34 253.785L165.35 253.977C147.209 255.73 133.924 271.857 135.677 289.998L135.869 291.989C137.622 310.13 153.75 323.415 171.89 321.662L173.881 321.469C192.022 319.716 205.307 303.589 203.554 285.448L203.362 283.458C201.609 265.317 185.481 252.032 167.34 253.785Z" stroke="#A42F1F" stroke-width="4"/>
<path d="M162.844 277.455L164.9 298.728L160.701 299.134L159.113 282.701L154.223 284.793L153.903 281.483L162.392 277.499L162.844 277.455ZM180.572 275.565L181.184 275.506L181.508 278.859L181.26 278.883C180.152 278.99 179.182 279.251 178.349 279.665C177.516 280.079 176.827 280.622 176.284 281.292C175.749 281.953 175.362 282.725 175.125 283.612C174.896 284.497 174.833 285.47 174.935 286.529L175.276 290.058C175.35 290.816 175.487 291.48 175.69 292.049C175.9 292.607 176.166 293.067 176.485 293.429C176.813 293.78 177.182 294.034 177.588 294.19C177.996 294.338 178.442 294.387 178.928 294.34C179.385 294.296 179.789 294.16 180.139 293.929C180.5 293.698 180.794 293.395 181.023 293.02C181.26 292.634 181.423 292.196 181.514 291.706C181.612 291.207 181.635 290.67 181.579 290.097C181.524 289.523 181.399 289 181.207 288.528C181.023 288.056 180.779 287.657 180.473 287.333C180.166 287 179.809 286.755 179.402 286.598C178.994 286.441 178.547 286.386 178.06 286.433C177.4 286.497 176.831 286.71 176.356 287.069C175.889 287.418 175.539 287.844 175.303 288.348C175.066 288.851 174.964 289.366 174.995 289.894L173.648 289.199C173.605 288.448 173.692 287.724 173.909 287.026C174.136 286.327 174.477 285.695 174.933 285.132C175.398 284.556 175.975 284.089 176.666 283.728C177.356 283.356 178.153 283.128 179.058 283.04C180.049 282.945 180.937 283.051 181.723 283.356C182.517 283.663 183.199 284.122 183.769 284.734C184.338 285.346 184.791 286.072 185.127 286.913C185.463 287.754 185.678 288.665 185.773 289.647C185.873 290.677 185.796 291.651 185.541 292.568C185.296 293.485 184.889 294.305 184.322 295.027C183.764 295.748 183.065 296.335 182.226 296.788C181.387 297.242 180.422 297.522 179.334 297.627C178.206 297.736 177.161 297.631 176.198 297.313C175.244 296.983 174.401 296.476 173.667 295.791C172.934 295.106 172.337 294.266 171.879 293.27C171.429 292.274 171.144 291.163 171.026 289.939L170.868 288.305C170.703 286.594 170.8 285.006 171.158 283.539C171.526 282.061 172.131 280.757 172.973 279.626C173.814 278.485 174.874 277.563 176.15 276.86C177.426 276.158 178.901 275.727 180.572 275.565Z" fill="#A42F1F"/>
<path d="M247.162 248.081L245.171 248.273C228.13 249.92 215.65 265.07 217.297 282.111L217.489 284.102C219.136 301.143 234.286 313.623 251.327 311.976L253.318 311.784C270.359 310.137 282.839 294.987 281.192 277.946L281 275.955C279.353 258.914 264.203 246.434 247.162 248.081Z" fill="#FFF1E6"/>
<path d="M326.599 238.395L324.608 238.587C306.467 240.34 293.182 256.468 294.935 274.608L295.128 276.599C296.881 294.74 313.008 308.025 331.149 306.272L333.139 306.08C351.28 304.327 364.565 288.199 362.812 270.058L362.62 268.068C360.867 249.927 344.74 236.642 326.599 238.395Z" fill="#FFE5D1"/>
<path d="M326.599 238.395L324.608 238.587C306.467 240.34 293.182 256.468 294.935 274.608L295.128 276.599C296.881 294.74 313.008 308.025 331.149 306.272L333.139 306.08C351.28 304.327 364.565 288.199 362.812 270.058L362.62 268.068C360.867 249.927 344.74 236.642 326.599 238.395Z" stroke="#A42F1F" stroke-width="4"/>
<path d="M317.022 271.474L319.267 271.257C319.987 271.188 320.568 271.009 321.011 270.721C321.453 270.423 321.765 270.039 321.945 269.571C322.134 269.092 322.2 268.551 322.141 267.948C322.089 267.403 321.935 266.933 321.68 266.535C321.435 266.127 321.088 265.827 320.637 265.636C320.187 265.434 319.635 265.365 318.983 265.428C318.469 265.477 318.002 265.625 317.585 265.871C317.166 266.119 316.845 266.439 316.618 266.834C316.391 267.228 316.303 267.688 316.354 268.212L312.14 268.62C312.027 267.453 312.24 266.408 312.779 265.483C313.326 264.557 314.107 263.799 315.12 263.211C316.132 262.622 317.275 262.266 318.548 262.143C319.987 262.004 321.269 262.117 322.393 262.478C323.516 262.831 324.422 263.425 325.111 264.262C325.8 265.097 326.208 266.176 326.336 267.498C326.4 268.169 326.308 268.835 326.059 269.497C325.807 270.149 325.415 270.757 324.88 271.318C324.355 271.87 323.694 272.336 322.897 272.717C322.099 273.089 321.184 273.324 320.154 273.423L317.238 273.705L317.022 271.474ZM317.331 274.667L317.121 272.495L320.037 272.213C321.194 272.101 322.222 272.134 323.122 272.313C324.022 272.49 324.793 272.798 325.433 273.236C326.074 273.666 326.577 274.201 326.943 274.843C327.308 275.474 327.53 276.194 327.607 277C327.703 277.992 327.6 278.894 327.296 279.708C326.991 280.513 326.519 281.216 325.88 281.817C325.252 282.417 324.494 282.904 323.607 283.274C322.72 283.634 321.737 283.866 320.658 283.971C319.764 284.057 318.872 284.021 317.984 283.861C317.103 283.691 316.29 283.392 315.542 282.964C314.804 282.525 314.188 281.947 313.697 281.229C313.214 280.5 312.923 279.611 312.821 278.561L317.035 278.154C317.087 278.699 317.27 279.171 317.584 279.573C317.898 279.975 318.304 280.274 318.804 280.471C319.314 280.667 319.865 280.736 320.457 280.679C321.128 280.614 321.69 280.437 322.143 280.148C322.604 279.848 322.94 279.462 323.149 278.991C323.368 278.509 323.448 277.966 323.39 277.363C323.315 276.586 323.113 275.977 322.787 275.538C322.459 275.089 322.021 274.778 321.475 274.606C320.929 274.432 320.296 274.381 319.576 274.45L317.331 274.667ZM333.736 279.189L334.012 279.163C335.179 279.05 336.167 278.812 336.975 278.449C337.792 278.076 338.447 277.591 338.938 276.994C339.43 276.398 339.769 275.693 339.956 274.88C340.142 274.058 340.186 273.141 340.088 272.13L339.699 268.105C339.625 267.338 339.482 266.67 339.269 266.102C339.068 265.532 338.807 265.072 338.489 264.72C338.178 264.357 337.83 264.097 337.442 263.938C337.064 263.778 336.655 263.72 336.218 263.762C335.751 263.807 335.35 263.964 335.013 264.231C334.674 264.49 334.398 264.826 334.183 265.239C333.977 265.651 333.831 266.117 333.744 266.635C333.666 267.143 333.652 267.669 333.705 268.214C333.757 268.758 333.871 269.272 334.046 269.756C334.218 270.23 334.45 270.643 334.739 270.998C335.028 271.343 335.372 271.609 335.773 271.796C336.173 271.974 336.63 272.037 337.146 271.987C337.641 271.939 338.074 271.804 338.446 271.582C338.825 271.35 339.136 271.064 339.378 270.727C339.63 270.389 339.81 270.023 339.92 269.629C340.038 269.235 340.079 268.843 340.041 268.455L341.5 269.08C341.566 269.76 341.484 270.445 341.257 271.134C341.029 271.823 340.679 272.465 340.207 273.06C339.743 273.645 339.187 274.13 338.537 274.517C337.889 274.903 337.174 275.134 336.397 275.209C335.406 275.305 334.508 275.21 333.706 274.925C332.902 274.63 332.202 274.187 331.606 273.597C331.017 272.996 330.546 272.276 330.189 271.438C329.834 270.599 329.607 269.674 329.509 268.663C329.41 267.633 329.482 266.65 329.725 265.714C329.978 264.777 330.383 263.933 330.938 263.183C331.502 262.432 332.204 261.819 333.041 261.347C333.887 260.862 334.85 260.568 335.929 260.464C337.007 260.359 338.009 260.474 338.934 260.806C339.86 261.139 340.674 261.659 341.381 262.365C342.086 263.062 342.66 263.924 343.102 264.951C343.555 265.977 343.843 267.136 343.968 268.428L344.109 269.887C344.242 271.267 344.216 272.565 344.029 273.779C343.852 274.994 343.514 276.111 343.014 277.131C342.522 278.139 341.873 279.026 341.063 279.791C340.264 280.555 339.308 281.173 338.196 281.643C337.083 282.113 335.818 282.417 334.399 282.554L334.064 282.587L333.736 279.189Z" fill="#A42F1F"/>
<path d="M406.228 230.7L404.237 230.892C386.096 232.645 372.811 248.773 374.564 266.913L374.756 268.904C376.51 287.045 392.637 300.33 410.778 298.577L412.768 298.385C430.909 296.631 444.194 280.504 442.441 262.363L442.249 260.373C440.496 242.232 424.368 228.947 406.228 230.7Z" fill="#FFE5D1"/>
<path d="M406.228 230.7L404.237 230.892C386.096 232.645 372.811 248.773 374.564 266.913L374.756 268.904C376.51 287.045 392.637 300.33 410.778 298.577L412.768 298.385C430.909 296.631 444.194 280.504 442.441 262.363L442.249 260.373C440.496 242.232 424.368 228.947 406.228 230.7Z" stroke="#A42F1F" stroke-width="4"/>
<path d="M407.657 267.263L407.976 270.558L392.681 272.036L392.23 269.504L399.724 254.608L403.063 254.286L400.031 260.686L396.328 268.358L407.657 267.263ZM403.966 254.198L406.018 275.427L401.819 275.833L399.768 254.604L403.966 254.198ZM423.781 261.113L424.136 264.787C424.291 266.382 424.253 267.774 424.025 268.963C423.795 270.143 423.395 271.133 422.826 271.934C422.264 272.724 421.563 273.336 420.722 273.771C419.881 274.205 418.926 274.474 417.856 274.578C417.001 274.66 416.193 274.631 415.434 274.488C414.674 274.336 413.975 274.055 413.337 273.646C412.708 273.236 412.147 272.696 411.65 272.028C411.163 271.35 410.759 270.525 410.44 269.555C410.12 268.585 409.898 267.458 409.774 266.175L409.419 262.501C409.265 260.907 409.304 259.525 409.534 258.355C409.773 257.174 410.174 256.188 410.734 255.399C411.306 254.607 412.013 253.999 412.855 253.574C413.695 253.141 414.65 252.871 415.719 252.768C416.575 252.685 417.377 252.72 418.129 252.874C418.888 253.017 419.586 253.288 420.224 253.687C420.86 254.087 421.422 254.625 421.91 255.304C422.397 255.974 422.799 256.793 423.119 257.763C423.438 258.723 423.658 259.84 423.781 261.113ZM419.976 265.749L419.512 260.952C419.438 260.184 419.33 259.517 419.187 258.952C419.054 258.386 418.885 257.913 418.681 257.529C418.476 257.137 418.24 256.826 417.973 256.597C417.706 256.368 417.411 256.21 417.088 256.124C416.767 256.037 416.416 256.012 416.036 256.049C415.561 256.095 415.147 256.228 414.795 256.448C414.453 256.668 414.176 256.994 413.962 257.427C413.748 257.849 413.606 258.403 413.534 259.087C413.471 259.76 413.487 260.573 413.579 261.526L414.042 266.322C414.116 267.09 414.221 267.762 414.355 268.338C414.499 268.912 414.673 269.401 414.879 269.803C415.093 270.194 415.329 270.51 415.588 270.75C415.856 270.979 416.15 271.137 416.473 271.223C416.805 271.309 417.161 271.334 417.539 271.297C418.006 271.252 418.41 271.119 418.753 270.9C419.103 270.67 419.384 270.339 419.598 269.907C419.82 269.463 419.962 268.9 420.023 268.217C420.085 267.534 420.069 266.711 419.976 265.749Z" fill="#A42F1F"/>
<path d="M486.049 224.995L484.058 225.188C467.017 226.835 454.537 241.984 456.184 259.026L456.376 261.017C458.023 278.058 473.173 290.538 490.214 288.891L492.205 288.699C509.247 287.052 521.726 271.902 520.08 254.861L519.887 252.87C518.24 235.828 503.091 223.349 486.049 224.995Z" fill="#FFF1E6"/>
<path d="M565.678 217.3L563.687 217.493C546.646 219.14 534.166 234.289 535.813 251.331L536.005 253.322C537.652 270.363 552.802 282.843 569.843 281.196L571.834 281.004C588.876 279.357 601.355 264.207 599.709 247.166L599.516 245.175C597.869 228.133 582.719 215.654 565.678 217.3Z" fill="#FFF1E6"/>
<path d="M645.115 207.615L643.124 207.807C624.983 209.56 611.698 225.687 613.451 243.828L613.644 245.819C615.397 263.96 631.524 277.245 649.665 275.492L651.656 275.299C669.796 273.546 683.081 257.419 681.328 239.278L681.136 237.287C679.383 219.147 663.256 205.862 645.115 207.615Z" fill="#FFE5D1"/>
<path d="M645.115 207.615L643.124 207.807C624.983 209.56 611.698 225.687 613.451 243.828L613.644 245.819C615.397 263.96 631.524 277.245 649.665 275.492L651.656 275.299C669.796 273.546 683.081 257.419 681.328 239.278L681.136 237.287C679.383 219.147 663.256 205.862 645.115 207.615Z" stroke="#A42F1F" stroke-width="4"/>
<path d="M644.807 230.924L645.026 233.184L638.65 252.947L634.218 253.375L640.692 234.633L630.121 235.655L629.804 232.374L644.807 230.924ZM652.252 248.409L652.528 248.383C653.695 248.27 654.683 248.032 655.492 247.669C656.308 247.296 656.963 246.811 657.455 246.214C657.947 245.618 658.285 244.913 658.472 244.1C658.658 243.277 658.702 242.361 658.604 241.35L658.215 237.325C658.141 236.558 657.998 235.89 657.786 235.321C657.584 234.752 657.323 234.292 657.005 233.94C656.695 233.577 656.346 233.317 655.958 233.158C655.58 232.998 655.171 232.94 654.734 232.982C654.268 233.027 653.866 233.184 653.529 233.451C653.19 233.71 652.914 234.046 652.699 234.459C652.494 234.871 652.347 235.337 652.26 235.855C652.182 236.363 652.168 236.889 652.221 237.433C652.273 237.978 652.387 238.492 652.562 238.976C652.734 239.449 652.966 239.863 653.255 240.218C653.544 240.563 653.888 240.829 654.289 241.016C654.689 241.193 655.146 241.257 655.662 241.207C656.157 241.159 656.59 241.024 656.962 240.802C657.341 240.569 657.652 240.284 657.894 239.946C658.147 239.609 658.326 239.243 658.436 238.849C658.554 238.455 658.595 238.063 658.557 237.675L660.016 238.3C660.082 238.979 660 239.664 659.773 240.354C659.545 241.043 659.195 241.685 658.723 242.279C658.259 242.865 657.703 243.35 657.054 243.737C656.405 244.123 655.691 244.354 654.913 244.429C653.922 244.525 653.024 244.43 652.222 244.144C651.418 243.849 650.718 243.407 650.122 242.817C649.533 242.216 649.062 241.496 648.706 240.658C648.35 239.819 648.123 238.894 648.026 237.883C647.926 236.853 647.998 235.869 648.241 234.934C648.494 233.997 648.899 233.153 649.454 232.403C650.018 231.651 650.72 231.039 651.557 230.566C652.404 230.082 653.366 229.788 654.445 229.684C655.524 229.579 656.525 229.694 657.451 230.026C658.376 230.359 659.191 230.879 659.897 231.585C660.602 232.282 661.176 233.144 661.619 234.171C662.071 235.197 662.359 236.356 662.484 237.648L662.625 239.106C662.758 240.487 662.732 241.785 662.545 242.999C662.368 244.214 662.03 245.331 661.53 246.35C661.038 247.359 660.389 248.246 659.58 249.011C658.78 249.775 657.824 250.393 656.712 250.863C655.599 251.333 654.334 251.637 652.915 251.774L652.58 251.807L652.252 248.409Z" fill="#A42F1F"/>
<path d="M724.744 199.92L722.753 200.112C704.612 201.865 691.327 217.992 693.08 236.133L693.273 238.124C695.026 256.265 711.153 269.55 729.294 267.797L731.285 267.604C749.426 265.851 762.711 249.724 760.958 231.583L760.765 229.592C759.012 211.451 742.885 198.166 724.744 199.92Z" fill="#FFE5D1"/>
<path d="M724.744 199.92L722.753 200.112C704.612 201.865 691.327 217.992 693.08 236.133L693.273 238.124C695.026 256.265 711.153 269.55 729.294 267.797L731.285 267.604C749.426 265.851 762.711 249.724 760.958 231.583L760.765 229.592C759.012 211.451 742.885 198.166 724.744 199.92Z" stroke="#A42F1F" stroke-width="4"/>
<path d="M725.809 238.652C725.938 239.984 725.735 241.136 725.201 242.11C724.666 243.074 723.878 243.843 722.834 244.414C721.799 244.975 720.597 245.322 719.226 245.455C717.855 245.587 716.604 245.477 715.471 245.125C714.337 244.765 713.411 244.162 712.691 243.319C711.971 242.467 711.547 241.374 711.418 240.042C711.332 239.149 711.434 238.324 711.724 237.571C712.013 236.806 712.453 236.136 713.046 235.559C713.646 234.971 714.371 234.499 715.219 234.142C716.066 233.775 717.005 233.543 718.036 233.443C719.416 233.31 720.674 233.434 721.809 233.814C722.945 234.195 723.867 234.798 724.574 235.623C725.282 236.446 725.694 237.456 725.809 238.652ZM721.554 238.784C721.491 238.133 721.311 237.586 721.013 237.143C720.724 236.691 720.343 236.36 719.872 236.15C719.401 235.941 718.868 235.865 718.276 235.922C717.683 235.979 717.174 236.156 716.752 236.452C716.329 236.748 716.014 237.146 715.808 237.646C715.609 238.137 715.542 238.708 715.605 239.359C715.667 240 715.842 240.542 716.131 240.986C716.428 241.428 716.813 241.754 717.284 241.963C717.765 242.162 718.306 242.232 718.909 242.174C719.511 242.116 720.02 241.944 720.434 241.659C720.857 241.363 721.162 240.971 721.351 240.481C721.548 239.991 721.616 239.425 721.554 238.784ZM724.412 228.912C724.516 229.991 724.322 230.976 723.83 231.868C723.335 232.749 722.601 233.472 721.625 234.038C720.66 234.602 719.526 234.947 718.223 235.073C716.911 235.2 715.722 235.08 714.656 234.711C713.59 234.343 712.73 233.774 712.077 233.003C711.423 232.223 711.044 231.293 710.94 230.214C710.816 228.931 710.998 227.824 711.487 226.894C711.985 225.954 712.717 225.206 713.683 224.651C714.66 224.096 715.795 223.755 717.088 223.63C718.4 223.503 719.583 223.62 720.639 223.979C721.703 224.337 722.565 224.931 723.224 225.76C723.892 226.578 724.288 227.629 724.412 228.912ZM720.231 229.508C720.175 228.934 720.026 228.448 719.781 228.05C719.535 227.642 719.212 227.34 718.811 227.143C718.418 226.945 717.951 226.873 717.406 226.926C716.881 226.976 716.44 227.132 716.082 227.392C715.734 227.651 715.479 228.004 715.317 228.452C715.163 228.889 715.114 229.404 715.171 229.997C715.227 230.57 715.373 231.066 715.61 231.485C715.855 231.893 716.179 232.2 716.582 232.406C716.984 232.613 717.453 232.69 717.988 232.638C718.522 232.587 718.962 232.422 719.308 232.143C719.664 231.863 719.918 231.5 720.071 231.054C720.234 230.597 720.286 230.081 720.231 229.508ZM741.584 221.572L741.802 223.832L735.426 243.595L730.994 244.023L737.468 225.281L726.896 226.303L726.579 223.022L741.584 221.572Z" fill="#A42F1F"/>
</g>
<rect x="141.837" y="136" width="776" height="300" rx="32" transform="rotate(3.79137 141.837 136)" fill="#E35B48"/>
<g clip-path="url(#clip1_83_1076)">
<path d="M208.306 176.484L206.31 176.352C189.227 175.22 174.46 188.151 173.328 205.234L173.196 207.23C172.064 224.313 184.995 239.079 202.078 240.212L204.074 240.344C221.157 241.476 235.924 228.545 237.056 211.461L237.188 209.466C238.32 192.382 225.389 177.616 208.306 176.484Z" fill="#FFF1E6"/>
<path d="M288.263 179.778L286.267 179.646C268.082 178.441 252.362 192.206 251.157 210.391L251.025 212.387C249.82 230.573 263.585 246.292 281.771 247.497L283.766 247.629C301.952 248.834 317.671 235.069 318.876 216.883L319.008 214.888C320.214 196.702 306.448 180.983 288.263 179.778Z" fill="#FFE5D1"/>
<path d="M288.263 179.778L286.267 179.646C268.082 178.441 252.362 192.206 251.157 210.391L251.025 212.387C249.82 230.573 263.585 246.292 281.771 247.497L283.766 247.629C301.952 248.834 317.671 235.069 318.876 216.883L319.008 214.888C320.214 196.702 306.448 180.983 288.263 179.778Z" stroke="#A42F1F" stroke-width="4"/>
<path d="M279.996 202.409L278.583 223.734L274.373 223.455L275.465 206.983L270.302 208.255L270.521 204.937L279.543 202.379L279.996 202.409ZM300.287 221.869L300.069 225.158L285.511 224.193L285.697 221.387L293.071 214.462C293.813 213.738 294.404 213.097 294.842 212.539C295.282 211.971 295.604 211.459 295.811 211.003C296.027 210.537 296.15 210.09 296.178 209.662C296.221 209.019 296.15 208.461 295.966 207.989C295.783 207.507 295.49 207.125 295.088 206.844C294.695 206.564 294.197 206.404 293.593 206.363C292.95 206.321 292.384 206.44 291.895 206.721C291.417 207.002 291.038 207.413 290.757 207.952C290.486 208.492 290.328 209.113 290.281 209.814L286.057 209.534C286.141 208.268 286.52 207.128 287.194 206.116C287.868 205.093 288.777 204.307 289.919 203.756C291.062 203.196 292.389 202.966 293.899 203.066C295.39 203.165 296.631 203.492 297.622 204.047C298.624 204.593 299.357 205.336 299.823 206.277C300.299 207.209 300.497 208.299 300.414 209.546C300.368 210.248 300.209 210.927 299.941 211.585C299.673 212.232 299.308 212.874 298.845 213.509C298.392 214.134 297.851 214.764 297.222 215.398C296.593 216.031 295.899 216.685 295.14 217.359L291.167 221.265L300.287 221.869Z" fill="#A42F1F"/>
<path d="M368.088 185.068L366.092 184.936C347.907 183.731 332.187 197.496 330.982 215.681L330.85 217.677C329.645 235.863 343.41 251.582 361.596 252.787L363.591 252.919C381.777 254.124 397.496 240.359 398.701 222.173L398.833 220.178C400.039 201.992 386.273 186.273 368.088 185.068Z" fill="#FFE5D1"/>
<path d="M368.088 185.068L366.092 184.936C347.907 183.731 332.187 197.496 330.982 215.681L330.85 217.677C329.645 235.863 343.41 251.582 361.596 252.787L363.591 252.919C381.777 254.124 397.496 240.359 398.701 222.173L398.833 220.178C400.039 201.992 386.273 186.273 368.088 185.068Z" stroke="#A42F1F" stroke-width="4"/>
<path d="M362.923 226.02L362.706 229.309L348.147 228.344L348.333 225.538L355.707 218.613C356.45 217.889 357.04 217.247 357.479 216.689C357.917 216.121 358.24 215.609 358.446 215.153C358.663 214.688 358.785 214.241 358.814 213.812C358.856 213.169 358.786 212.612 358.602 212.139C358.418 211.658 358.126 211.276 357.724 210.995C357.331 210.714 356.833 210.554 356.229 210.514C355.586 210.472 355.019 210.591 354.532 210.872C354.053 211.153 353.673 211.563 353.393 212.103C353.123 212.643 352.963 213.263 352.917 213.965L348.693 213.685C348.777 212.418 349.156 211.279 349.83 210.266C350.505 209.244 351.413 208.458 352.555 207.907C353.698 207.347 355.025 207.117 356.536 207.217C358.027 207.316 359.267 207.642 360.258 208.197C361.259 208.743 361.993 209.487 362.459 210.428C362.936 211.36 363.132 212.449 363.05 213.697C363.003 214.398 362.846 215.078 362.577 215.735C362.309 216.383 361.943 217.024 361.48 217.659C361.028 218.285 360.487 218.915 359.858 219.548C359.228 220.182 358.535 220.836 357.775 221.51L353.803 225.416L362.923 226.02ZM370.475 217.301L372.726 217.45C373.446 217.498 374.049 217.416 374.533 217.203C375.017 216.981 375.386 216.653 375.64 216.219C375.904 215.777 376.056 215.254 376.096 214.649C376.132 214.104 376.058 213.614 375.871 213.181C375.695 212.739 375.4 212.387 374.987 212.124C374.574 211.852 374.041 211.695 373.389 211.651C372.872 211.617 372.388 211.688 371.935 211.863C371.484 212.039 371.113 212.303 370.826 212.656C370.539 213.009 370.377 213.448 370.342 213.974L366.118 213.695C366.196 212.525 366.575 211.528 367.256 210.702C367.947 209.876 368.84 209.255 369.934 208.839C371.029 208.422 372.213 208.256 373.491 208.34C374.933 208.436 376.179 208.753 377.23 209.293C378.281 209.822 379.078 210.555 379.624 211.492C380.168 212.428 380.397 213.559 380.309 214.885C380.264 215.557 380.065 216.199 379.711 216.812C379.358 217.415 378.873 217.951 378.255 218.419C377.646 218.877 376.918 219.23 376.07 219.478C375.222 219.715 374.283 219.8 373.249 219.731L370.326 219.537L370.475 217.301ZM370.262 220.502L370.407 218.324L373.329 218.518C374.489 218.595 375.499 218.794 376.358 219.115C377.218 219.436 377.928 219.865 378.49 220.401C379.053 220.928 379.462 221.537 379.719 222.23C379.977 222.912 380.08 223.658 380.027 224.467C379.961 225.461 379.711 226.335 379.28 227.089C378.848 227.834 378.269 228.451 377.542 228.941C376.824 229.432 375.999 229.788 375.064 230.01C374.13 230.222 373.122 230.293 372.041 230.221C371.144 230.162 370.27 229.981 369.419 229.68C368.578 229.37 367.824 228.943 367.155 228.4C366.497 227.847 365.984 227.177 365.615 226.389C365.256 225.592 365.112 224.668 365.181 223.615L369.406 223.895C369.37 224.441 369.474 224.937 369.718 225.384C369.962 225.831 370.315 226.192 370.777 226.467C371.248 226.743 371.781 226.901 372.375 226.94C373.048 226.985 373.631 226.901 374.124 226.689C374.628 226.468 375.022 226.142 375.305 225.71C375.598 225.27 375.765 224.747 375.805 224.143C375.856 223.364 375.757 222.731 375.505 222.244C375.254 221.748 374.873 221.37 374.362 221.111C373.85 220.852 373.234 220.699 372.513 220.651L370.262 220.502Z" fill="#A42F1F"/>
<path d="M447.78 192.353L445.785 192.221C428.701 191.089 413.935 204.02 412.803 221.104L412.67 223.099C411.538 240.183 424.469 254.949 441.553 256.081L443.548 256.213C460.632 257.345 475.398 244.414 476.53 227.331L476.663 225.335C477.795 208.252 464.864 193.486 447.78 192.353Z" fill="#FFF1E6"/>
<path d="M527.738 195.648L525.742 195.515C507.556 194.31 491.837 208.076 490.632 226.261L490.5 228.257C489.295 246.442 503.06 262.161 521.246 263.367L523.241 263.499C541.427 264.704 557.146 250.939 558.351 232.753L558.483 230.757C559.688 212.572 545.923 196.853 527.738 195.648Z" fill="#FFE5D1"/>
<path d="M527.738 195.648L525.742 195.515C507.556 194.31 491.837 208.076 490.632 226.261L490.5 228.257C489.295 246.442 503.06 262.161 521.246 263.367L523.241 263.499C541.427 264.704 557.146 250.939 558.351 232.753L558.483 230.757C559.688 212.572 545.923 196.853 527.738 195.648Z" stroke="#A42F1F" stroke-width="4"/>
<path d="M523.232 231.96L523.014 235.264L507.681 234.248L507.646 231.676L517.451 218.189L520.798 218.411L516.771 224.236L511.875 231.208L523.232 231.96ZM521.704 218.471L520.294 239.752L516.085 239.473L517.495 218.192L521.704 218.471ZM536.66 219.418L535.247 240.743L531.037 240.464L532.129 223.991L526.965 225.264L527.185 221.946L536.207 219.388L536.66 219.418Z" fill="#A42F1F"/>
<path d="M607.43 202.933L605.435 202.801C588.351 201.669 573.585 214.6 572.453 231.683L572.32 233.679C571.188 250.762 584.119 265.529 601.203 266.661L603.198 266.793C620.282 267.925 635.048 254.994 636.18 237.911L636.313 235.915C637.445 218.832 624.514 204.065 607.43 202.933Z" fill="#FFF1E6"/>
<path d="M687.387 206.227L685.392 206.095C667.206 204.89 651.487 218.655 650.282 236.841L650.15 238.836C648.944 257.022 662.71 272.741 680.895 273.946L682.891 274.079C701.076 275.284 716.796 261.518 718.001 243.333L718.133 241.337C719.338 223.152 705.573 207.433 687.387 206.227Z" fill="#FFE5D1"/>
<path d="M687.387 206.227L685.392 206.095C667.206 204.89 651.487 218.655 650.282 236.841L650.15 238.836C648.944 257.022 662.71 272.741 680.895 273.946L682.891 274.079C701.076 275.284 716.796 261.518 718.001 243.333L718.133 241.337C719.338 223.152 705.573 207.433 687.387 206.227Z" stroke="#A42F1F" stroke-width="4"/>
<path d="M679.732 228.723L680.346 228.763L680.123 232.125L679.874 232.109C678.764 232.035 677.763 232.135 676.874 232.409C675.985 232.683 675.218 233.107 674.573 233.68C673.939 234.245 673.433 234.946 673.054 235.782C672.686 236.619 672.466 237.568 672.396 238.63L672.161 242.168C672.111 242.928 672.139 243.605 672.246 244.199C672.365 244.784 672.551 245.281 672.808 245.69C673.075 246.089 673.397 246.399 673.775 246.62C674.152 246.831 674.584 246.952 675.071 246.985C675.529 247.015 675.95 246.945 676.333 246.775C676.726 246.605 677.065 246.353 677.352 246.02C677.649 245.678 677.882 245.272 678.049 244.804C678.228 244.326 678.336 243.8 678.374 243.225C678.412 242.65 678.375 242.114 678.26 241.617C678.157 241.121 677.98 240.689 677.73 240.32C677.481 239.941 677.168 239.641 676.791 239.421C676.414 239.2 675.982 239.073 675.495 239.041C674.833 238.997 674.238 239.115 673.71 239.393C673.193 239.662 672.777 240.026 672.463 240.484C672.149 240.943 671.964 241.435 671.911 241.96L670.694 241.057C670.772 240.309 670.975 239.608 671.302 238.954C671.639 238.301 672.078 237.733 672.619 237.25C673.17 236.758 673.816 236.39 674.557 236.146C675.297 235.891 676.122 235.794 677.028 235.854C678.021 235.92 678.881 236.168 679.606 236.598C680.341 237.028 680.94 237.591 681.402 238.288C681.865 238.984 682.195 239.774 682.391 240.658C682.587 241.542 682.652 242.476 682.587 243.46C682.518 244.493 682.284 245.442 681.884 246.306C681.494 247.171 680.961 247.913 680.283 248.534C679.616 249.155 678.831 249.622 677.93 249.934C677.028 250.246 676.032 250.366 674.94 250.294C673.81 250.219 672.796 249.946 671.897 249.475C671.008 248.996 670.258 248.359 669.645 247.565C669.032 246.77 668.58 245.845 668.288 244.788C668.006 243.732 667.905 242.59 667.987 241.362L668.095 239.725C668.209 238.01 668.561 236.458 669.152 235.068C669.754 233.669 670.562 232.48 671.577 231.5C672.591 230.51 673.785 229.772 675.158 229.286C676.531 228.799 678.056 228.611 679.732 228.723ZM699.361 245.761C699.273 247.096 698.886 248.201 698.202 249.075C697.518 249.94 696.615 250.57 695.493 250.966C694.381 251.352 693.137 251.5 691.763 251.409C690.39 251.318 689.172 251.007 688.111 250.477C687.051 249.937 686.234 249.192 685.661 248.244C685.088 247.286 684.847 246.14 684.935 244.805C684.994 243.908 685.228 243.112 685.637 242.414C686.045 241.708 686.588 241.117 687.265 240.643C687.954 240.16 688.745 239.812 689.64 239.597C690.535 239.372 691.5 239.294 692.533 239.363C693.916 239.455 695.138 239.78 696.197 240.34C697.256 240.899 698.068 241.643 698.633 242.571C699.198 243.499 699.441 244.562 699.361 245.761ZM695.14 245.202C695.183 244.55 695.095 243.981 694.872 243.496C694.659 243.003 694.338 242.614 693.907 242.331C693.475 242.048 692.963 241.887 692.368 241.848C691.773 241.808 691.244 241.9 690.779 242.124C690.314 242.348 689.939 242.69 689.654 243.151C689.379 243.602 689.22 244.154 689.177 244.807C689.135 245.45 689.219 246.014 689.432 246.498C689.654 246.982 689.982 247.366 690.413 247.649C690.855 247.923 691.378 248.08 691.981 248.12C692.586 248.16 693.115 248.073 693.57 247.858C694.035 247.635 694.4 247.297 694.664 246.844C694.939 246.393 695.097 245.845 695.14 245.202ZM699.557 235.923C699.486 237.005 699.135 237.946 698.504 238.746C697.875 239.536 697.033 240.131 695.979 240.531C694.934 240.931 693.759 241.088 692.453 241.002C691.138 240.915 689.984 240.603 688.992 240.068C687.999 239.532 687.244 238.831 686.724 237.965C686.204 237.089 685.98 236.11 686.052 235.028C686.137 233.742 686.496 232.68 687.13 231.841C687.773 230.993 688.616 230.373 689.66 229.982C690.714 229.592 691.888 229.44 693.184 229.526C694.501 229.613 695.65 229.919 696.632 230.444C697.626 230.97 698.379 231.696 698.896 232.62C699.422 233.536 699.643 234.637 699.557 235.923ZM695.336 235.834C695.374 235.259 695.304 234.756 695.127 234.323C694.951 233.881 694.681 233.53 694.316 233.271C693.962 233.013 693.511 232.865 692.965 232.829C692.44 232.794 691.979 232.876 691.584 233.075C691.199 233.275 690.89 233.582 690.657 233.998C690.434 234.404 690.303 234.904 690.264 235.498C690.226 236.073 690.289 236.586 690.456 237.038C690.632 237.48 690.902 237.836 691.266 238.104C691.629 238.373 692.079 238.525 692.615 238.561C693.152 238.596 693.613 238.505 693.999 238.286C694.395 238.067 694.705 237.75 694.928 237.334C695.161 236.909 695.298 236.409 695.336 235.834Z" fill="#A42F1F"/>
<path d="M767.08 213.513L765.084 213.381C748.001 212.249 733.235 225.18 732.103 242.263L731.97 244.259C730.838 261.342 743.769 276.108 760.853 277.241L762.848 277.373C779.932 278.505 794.698 265.574 795.83 248.491L795.962 246.495C797.095 229.412 784.163 214.645 767.08 213.513Z" fill="#FFF1E6"/>
<path d="M847.037 216.807L845.042 216.675C826.856 215.47 811.137 229.235 809.932 247.421L809.799 249.416C808.594 267.602 822.36 283.321 840.545 284.526L842.541 284.658C860.726 285.864 876.445 272.098 877.651 253.913L877.783 251.917C878.988 233.732 865.223 218.012 847.037 216.807Z" fill="#FFE5D1"/>
<path d="M847.037 216.807L845.042 216.675C826.856 215.47 811.137 229.235 809.932 247.421L809.799 249.416C808.594 267.602 822.36 283.321 840.545 284.526L842.541 284.658C860.726 285.864 876.445 272.098 877.651 253.913L877.783 251.917C878.988 233.732 865.223 218.012 847.037 216.807Z" stroke="#A42F1F" stroke-width="4"/>
<path d="M841.822 255.202C841.734 256.537 841.347 257.641 840.662 258.516C839.979 259.381 839.076 260.011 837.953 260.406C836.841 260.793 835.599 260.94 834.225 260.849C832.851 260.758 831.634 260.448 830.573 259.917C829.512 259.377 828.695 258.633 828.122 257.685C827.549 256.727 827.307 255.581 827.396 254.246C827.455 253.349 827.689 252.552 828.097 251.855C828.506 251.148 829.049 250.558 829.727 250.084C830.414 249.601 831.206 249.252 832.101 249.038C832.996 248.813 833.961 248.735 834.994 248.804C836.377 248.895 837.599 249.221 838.658 249.78C839.717 250.34 840.529 251.084 841.093 252.012C841.658 252.94 841.902 254.003 841.822 255.202ZM837.602 254.643C837.645 253.99 837.555 253.421 837.333 252.937C837.121 252.443 836.799 252.055 836.368 251.772C835.937 251.489 835.423 251.328 834.83 251.288C834.235 251.249 833.705 251.341 833.24 251.565C832.775 251.788 832.4 252.131 832.115 252.591C831.84 253.043 831.681 253.595 831.638 254.248C831.595 254.891 831.68 255.454 831.894 255.938C832.115 256.423 832.442 256.807 832.874 257.09C833.316 257.364 833.838 257.521 834.443 257.561C835.047 257.601 835.577 257.513 836.031 257.299C836.497 257.075 836.861 256.737 837.126 256.285C837.401 255.834 837.559 255.286 837.602 254.643ZM842.019 245.364C841.947 246.446 841.596 247.386 840.966 248.186C840.336 248.976 839.494 249.572 838.44 249.971C837.396 250.372 836.221 250.529 834.915 250.443C833.6 250.355 832.446 250.044 831.453 249.508C830.461 248.973 829.705 248.272 829.185 247.406C828.666 246.53 828.442 245.551 828.514 244.469C828.599 243.183 828.958 242.12 829.591 241.281C830.234 240.433 831.078 239.814 832.121 239.423C833.175 239.033 834.35 238.881 835.646 238.967C836.961 239.054 838.11 239.36 839.094 239.885C840.086 240.411 840.841 241.136 841.357 242.061C841.884 242.977 842.104 244.078 842.019 245.364ZM837.797 245.275C837.835 244.7 837.766 244.197 837.588 243.764C837.412 243.322 837.142 242.971 836.778 242.712C836.422 242.453 835.973 242.306 835.427 242.27C834.9 242.235 834.44 242.317 834.045 242.516C833.66 242.716 833.351 243.023 833.118 243.438C832.896 243.844 832.764 244.345 832.725 244.939C832.687 245.514 832.751 246.027 832.916 246.478C833.093 246.921 833.363 247.276 833.727 247.545C834.091 247.814 834.541 247.966 835.076 248.002C835.612 248.037 836.073 247.945 836.46 247.726C836.856 247.508 837.166 247.191 837.389 246.775C837.623 246.35 837.759 245.85 837.797 245.275ZM859.061 258.899L858.843 262.187L844.285 261.222L844.471 258.416L851.845 251.491C852.588 250.767 853.179 250.126 853.616 249.568C854.056 249 854.379 248.488 854.585 248.032C854.801 247.567 854.924 247.12 854.953 246.691C854.995 246.048 854.925 245.49 854.741 245.018C854.557 244.536 854.265 244.155 853.863 243.873C853.469 243.593 852.972 243.433 852.367 243.393C851.724 243.35 851.158 243.469 850.67 243.75C850.191 244.031 849.812 244.442 849.532 244.981C849.261 245.521 849.102 246.142 849.056 246.843L844.832 246.563C844.916 245.297 845.294 244.157 845.968 243.145C846.643 242.123 847.551 241.336 848.693 240.786C849.837 240.225 851.163 239.995 852.674 240.095C854.165 240.194 855.406 240.521 856.396 241.076C857.398 241.622 858.132 242.365 858.597 243.306C859.074 244.238 859.271 245.328 859.189 246.575C859.142 247.277 858.984 247.956 858.716 248.614C858.447 249.262 858.082 249.903 857.619 250.538C857.167 251.164 856.626 251.793 855.997 252.427C855.367 253.06 854.674 253.714 853.914 254.388L849.941 258.294L859.061 258.899Z" fill="#A42F1F"/>
<path d="M203.148 254.313L201.152 254.181C182.967 252.976 167.248 266.741 166.043 284.927L165.91 286.922C164.705 305.108 178.47 320.827 196.656 322.032L198.652 322.164C216.837 323.369 232.556 309.604 233.761 291.419L233.894 289.423C235.099 271.237 221.334 255.518 203.148 254.313Z" fill="#FFE5D1"/>
<path d="M203.148 254.313L201.152 254.181C182.967 252.976 167.248 266.741 166.043 284.927L165.91 286.922C164.705 305.108 178.47 320.827 196.656 322.032L198.652 322.164C216.837 323.369 232.556 309.604 233.761 291.419L233.894 289.423C235.099 271.237 221.334 255.518 203.148 254.313Z" stroke="#A42F1F" stroke-width="4"/>
<path d="M194.883 295.148L195.161 295.166C196.33 295.244 197.343 295.169 198.2 294.942C199.067 294.706 199.791 294.333 200.373 293.823C200.955 293.314 201.404 292.674 201.719 291.902C202.035 291.12 202.227 290.223 202.294 289.209L202.561 285.175C202.612 284.405 202.579 283.723 202.462 283.128C202.354 282.533 202.172 282.037 201.915 281.638C201.668 281.23 201.365 280.916 201.008 280.697C200.66 280.478 200.267 280.355 199.829 280.326C199.361 280.295 198.939 280.384 198.563 280.593C198.188 280.794 197.86 281.081 197.581 281.453C197.312 281.827 197.092 282.263 196.922 282.761C196.763 283.249 196.665 283.766 196.629 284.312C196.592 284.857 196.621 285.383 196.715 285.889C196.809 286.384 196.971 286.83 197.199 287.227C197.428 287.614 197.725 287.932 198.09 288.182C198.456 288.421 198.897 288.558 199.413 288.592C199.91 288.625 200.36 288.562 200.762 288.403C201.174 288.235 201.527 288.004 201.821 287.709C202.124 287.417 202.361 287.085 202.532 286.714C202.714 286.344 202.817 285.964 202.843 285.575L204.181 286.428C204.136 287.109 203.945 287.772 203.609 288.415C203.273 289.058 202.823 289.636 202.261 290.146C201.709 290.648 201.081 291.037 200.378 291.314C199.674 291.59 198.933 291.702 198.154 291.651C197.16 291.585 196.29 291.346 195.544 290.934C194.799 290.513 194.179 289.963 193.686 289.285C193.203 288.596 192.854 287.81 192.638 286.924C192.423 286.039 192.349 285.09 192.416 284.077C192.485 283.044 192.715 282.085 193.106 281.201C193.507 280.317 194.042 279.55 194.712 278.9C195.391 278.25 196.182 277.759 197.085 277.428C197.998 277.086 198.995 276.952 200.077 277.024C201.159 277.095 202.129 277.37 202.988 277.848C203.847 278.326 204.568 278.971 205.15 279.782C205.733 280.584 206.16 281.528 206.43 282.613C206.711 283.698 206.808 284.889 206.722 286.184L206.625 287.646C206.534 289.03 206.297 290.306 205.916 291.474C205.545 292.644 205.031 293.692 204.372 294.617C203.724 295.533 202.939 296.303 202.017 296.928C201.105 297.552 200.062 298.007 198.888 298.291C197.714 298.575 196.416 298.67 194.993 298.576L194.657 298.553L194.883 295.148Z" fill="#A42F1F"/>
<path d="M282.841 261.599L280.845 261.466C263.762 260.334 248.995 273.265 247.863 290.349L247.731 292.344C246.599 309.428 259.53 324.194 276.613 325.326L278.609 325.459C295.692 326.591 310.459 313.66 311.591 296.576L311.723 294.581C312.855 277.497 299.924 262.731 282.841 261.599Z" fill="#FFF1E6"/>
<path d="M362.798 264.893L360.802 264.76C342.617 263.555 326.898 277.321 325.692 295.506L325.56 297.502C324.355 315.687 338.12 331.406 356.306 332.612L358.302 332.744C376.487 333.949 392.206 320.184 393.411 301.998L393.544 300.003C394.749 281.817 380.983 266.098 362.798 264.893Z" fill="#FFE5D1"/>
<path d="M362.798 264.893L360.802 264.76C342.617 263.555 326.898 277.321 325.692 295.506L325.56 297.502C324.355 315.687 338.12 331.406 356.306 332.612L358.302 332.744C376.487 333.949 392.206 320.184 393.411 301.998L393.544 300.003C394.749 281.817 380.983 266.098 362.798 264.893Z" stroke="#A42F1F" stroke-width="4"/>
<path d="M357.634 305.845L357.416 309.134L342.858 308.169L343.044 305.363L350.417 298.438C351.16 297.714 351.75 297.073 352.189 296.514C352.627 295.946 352.95 295.434 353.156 294.978C353.374 294.513 353.495 294.067 353.524 293.637C353.567 292.994 353.496 292.437 353.312 291.965C353.129 291.483 352.836 291.101 352.434 290.82C352.041 290.54 351.543 290.379 350.939 290.339C350.296 290.297 349.73 290.416 349.242 290.697C348.763 290.978 348.383 291.389 348.103 291.927C347.833 292.468 347.673 293.088 347.627 293.79L343.403 293.51C343.487 292.243 343.866 291.103 344.54 290.092C345.215 289.069 346.123 288.282 347.266 287.732C348.408 287.172 349.735 286.941 351.246 287.041C352.737 287.14 353.977 287.467 354.968 288.023C355.969 288.568 356.703 289.312 357.17 290.253C357.646 291.185 357.843 292.274 357.76 293.521C357.713 294.224 357.556 294.903 357.287 295.561C357.02 296.208 356.653 296.849 356.19 297.484C355.738 298.11 355.197 298.739 354.568 299.373C353.939 300.007 353.245 300.66 352.486 301.335L348.513 305.241L357.634 305.845ZM375.913 288.985L375.762 291.25L366.273 309.721L361.83 309.426L371.251 291.979L360.654 291.277L360.872 287.988L375.913 288.985Z" fill="#A42F1F"/>
<path d="M442.623 270.183L440.627 270.05C422.442 268.845 406.723 282.611 405.517 300.796L405.385 302.792C404.18 320.977 417.945 336.697 436.131 337.902L438.126 338.034C456.312 339.239 472.031 325.474 473.236 307.288L473.369 305.293C474.574 287.107 460.808 271.388 442.623 270.183Z" fill="#FFE5D1"/>
<path d="M442.623 270.183L440.627 270.05C422.442 268.845 406.723 282.611 405.517 300.796L405.385 302.792C404.18 320.977 417.945 336.697 436.131 337.902L438.126 338.034C456.312 339.239 472.031 325.474 473.236 307.288L473.369 305.293C474.574 287.107 460.808 271.388 442.623 270.183Z" stroke="#A42F1F" stroke-width="4"/>
<path d="M427.82 301.277L430.071 301.426C430.793 301.474 431.394 301.392 431.879 301.179C432.363 300.957 432.733 300.628 432.986 300.195C433.251 299.753 433.403 299.23 433.443 298.625C433.479 298.079 433.403 297.59 433.216 297.157C433.04 296.714 432.746 296.362 432.332 296.1C431.92 295.828 431.388 295.671 430.734 295.627C430.218 295.593 429.734 295.663 429.282 295.839C428.829 296.015 428.46 296.279 428.172 296.632C427.884 296.985 427.724 297.424 427.689 297.95L423.464 297.67C423.542 296.501 423.921 295.504 424.603 294.678C425.293 293.853 426.186 293.231 427.281 292.815C428.375 292.397 429.56 292.231 430.836 292.316C432.278 292.411 433.525 292.73 434.576 293.268C435.627 293.798 436.425 294.531 436.969 295.468C437.515 296.404 437.742 297.535 437.655 298.86C437.61 299.533 437.411 300.175 437.058 300.788C436.704 301.391 436.219 301.927 435.6 302.394C434.993 302.854 434.265 303.206 433.416 303.454C432.569 303.691 431.628 303.775 430.596 303.707L427.672 303.513L427.82 301.277ZM427.608 304.478L427.752 302.3L430.676 302.494C431.835 302.57 432.844 302.77 433.704 303.091C434.564 303.412 435.275 303.841 435.836 304.377C436.398 304.904 436.808 305.514 437.065 306.206C437.324 306.889 437.426 307.634 437.372 308.442C437.306 309.437 437.058 310.311 436.626 311.065C436.195 311.81 435.616 312.427 434.888 312.917C434.171 313.408 433.345 313.765 432.41 313.986C431.476 314.198 430.468 314.269 429.386 314.197C428.49 314.137 427.616 313.957 426.765 313.656C425.924 313.346 425.17 312.919 424.501 312.376C423.843 311.823 423.329 311.153 422.961 310.366C422.603 309.568 422.458 308.644 422.528 307.591L426.752 307.871C426.716 308.417 426.82 308.913 427.064 309.36C427.309 309.807 427.662 310.168 428.123 310.443C428.595 310.719 429.127 310.876 429.721 310.916C430.394 310.96 430.976 310.877 431.47 310.665C431.974 310.444 432.368 310.117 432.651 309.686C432.944 309.245 433.111 308.723 433.151 308.119C433.203 307.339 433.103 306.706 432.851 306.22C432.601 305.724 432.219 305.346 431.708 305.087C431.197 304.828 430.581 304.675 429.859 304.627L427.608 304.478ZM454.647 312.274L454.429 315.563L439.871 314.598L440.057 311.792L447.431 304.867C448.173 304.143 448.764 303.502 449.202 302.944C449.641 302.375 449.964 301.864 450.17 301.407C450.387 300.942 450.51 300.496 450.538 300.067C450.581 299.423 450.51 298.866 450.326 298.394C450.143 297.912 449.85 297.531 449.448 297.249C449.055 296.969 448.557 296.808 447.952 296.768C447.31 296.726 446.744 296.845 446.255 297.126C445.776 297.407 445.397 297.818 445.117 298.356C444.846 298.897 444.687 299.518 444.641 300.219L440.417 299.939C440.501 298.672 440.879 297.532 441.554 296.521C442.228 295.498 443.137 294.711 444.279 294.161C445.422 293.601 446.748 293.37 448.259 293.47C449.75 293.569 450.991 293.896 451.981 294.452C452.983 294.997 453.717 295.741 454.183 296.682C454.659 297.614 454.857 298.703 454.774 299.95C454.727 300.653 454.569 301.332 454.301 301.99C454.033 302.637 453.667 303.279 453.204 303.913C452.752 304.539 452.211 305.168 451.582 305.802C450.953 306.436 450.259 307.089 449.5 307.764L445.527 311.67L454.647 312.274Z" fill="#A42F1F"/>
<path d="M522.448 275.473L520.452 275.34C502.266 274.135 486.547 287.9 485.342 306.086L485.21 308.082C484.005 326.267 497.77 341.986 515.956 343.191L517.951 343.324C536.137 344.529 551.856 330.764 553.061 312.578L553.193 310.582C554.398 292.397 540.633 276.678 522.448 275.473Z" fill="#FFE5D1"/>
<path d="M522.448 275.473L520.452 275.34C502.266 274.135 486.547 287.9 485.342 306.086L485.21 308.082C484.005 326.267 497.77 341.986 515.956 343.191L517.951 343.324C536.137 344.529 551.856 330.764 553.061 312.578L553.193 310.582C554.398 292.397 540.633 276.678 522.448 275.473Z" stroke="#A42F1F" stroke-width="4"/>
<path d="M517.943 311.785L517.724 315.089L502.391 314.073L502.356 311.501L512.162 298.014L515.508 298.235L511.481 304.061L506.586 311.032L517.943 311.785ZM516.414 298.296L515.004 319.577L510.795 319.298L512.206 298.017L516.414 298.296ZM524.835 307.706L527.086 307.855C527.806 307.903 528.409 307.82 528.893 307.608C529.377 307.386 529.746 307.057 530 306.624C530.264 306.182 530.416 305.658 530.456 305.054C530.492 304.508 530.418 304.019 530.231 303.586C530.055 303.143 529.76 302.791 529.347 302.529C528.934 302.257 528.401 302.099 527.749 302.056C527.232 302.022 526.748 302.092 526.295 302.268C525.844 302.444 525.473 302.708 525.187 303.061C524.899 303.414 524.737 303.853 524.702 304.379L520.479 304.099C520.556 302.93 520.935 301.932 521.616 301.107C522.307 300.282 523.2 299.66 524.294 299.244C525.389 298.826 526.574 298.66 527.851 298.745C529.293 298.84 530.539 299.158 531.59 299.697C532.641 300.227 533.438 300.96 533.984 301.897C534.528 302.833 534.757 303.964 534.669 305.289C534.624 305.961 534.425 306.604 534.071 307.217C533.719 307.82 533.233 308.356 532.615 308.823C532.006 309.283 531.278 309.635 530.43 309.883C529.582 310.12 528.643 310.204 527.609 310.136L524.686 309.942L524.835 307.706ZM524.622 310.907L524.767 308.729L527.689 308.922C528.849 308.999 529.859 309.198 530.719 309.52C531.578 309.84 532.288 310.269 532.85 310.806C533.413 311.333 533.822 311.942 534.079 312.635C534.337 313.318 534.44 314.063 534.387 314.871C534.321 315.866 534.072 316.739 533.64 317.494C533.208 318.239 532.629 318.856 531.902 319.346C531.184 319.836 530.359 320.194 529.424 320.415C528.49 320.627 527.482 320.697 526.401 320.626C525.504 320.566 524.63 320.386 523.779 320.085C522.938 319.775 522.184 319.348 521.515 318.805C520.857 318.252 520.344 317.582 519.975 316.794C519.616 315.997 519.472 315.072 519.542 314.02L523.766 314.3C523.73 314.845 523.835 315.341 524.078 315.789C524.322 316.236 524.675 316.597 525.137 316.872C525.608 317.148 526.141 317.305 526.735 317.345C527.408 317.389 527.991 317.306 528.484 317.094C528.989 316.873 529.382 316.546 529.665 316.115C529.958 315.674 530.125 315.152 530.165 314.547C530.217 313.768 530.117 313.135 529.865 312.648C529.614 312.153 529.233 311.775 528.722 311.516C528.21 311.257 527.594 311.104 526.874 311.056L524.622 310.907Z" fill="#A42F1F"/>
<path d="M602.14 282.758L600.145 282.626C583.061 281.494 568.295 294.425 567.163 311.508L567.031 313.504C565.898 330.587 578.83 345.354 595.913 346.486L597.909 346.618C614.992 347.75 629.758 334.819 630.89 317.736L631.023 315.74C632.155 298.657 619.224 283.89 602.14 282.758Z" fill="#FFF1E6"/>
<path d="M681.965 288.048L679.97 287.916C662.886 286.784 648.12 299.715 646.988 316.798L646.855 318.794C645.723 335.877 658.654 350.644 675.738 351.776L677.733 351.908C694.817 353.04 709.583 340.109 710.715 323.026L710.847 321.03C711.98 303.947 699.048 289.18 681.965 288.048Z" fill="#FFF1E6"/>
<path d="M761.922 291.342L759.927 291.21C741.741 290.005 726.022 303.77 724.817 321.956L724.685 323.951C723.48 342.137 737.245 357.856 755.43 359.061L757.426 359.193C775.612 360.398 791.331 346.633 792.536 328.448L792.668 326.452C793.873 308.267 780.108 292.547 761.922 291.342Z" fill="#FFE5D1"/>
<path d="M761.922 291.342L759.927 291.21C741.741 290.005 726.022 303.77 724.817 321.956L724.685 323.951C723.48 342.137 737.245 357.856 755.43 359.061L757.426 359.193C775.612 360.398 791.331 346.633 792.536 328.448L792.668 326.452C793.873 308.267 780.108 292.547 761.922 291.342Z" stroke="#A42F1F" stroke-width="4"/>
<path d="M757.848 314.295L757.698 316.56L748.209 335.031L743.765 334.737L753.187 317.289L742.59 316.587L742.808 313.298L757.848 314.295ZM763.774 326.329L760.466 325.302L762.394 314.596L774.35 315.389L774.124 318.794L765.632 318.231L764.793 322.917C765.086 322.77 765.527 322.624 766.114 322.477C766.702 322.32 767.352 322.265 768.063 322.312C769.096 322.38 770.001 322.602 770.779 322.976C771.556 323.351 772.203 323.864 772.718 324.515C773.242 325.166 773.621 325.945 773.855 326.851C774.088 327.756 774.167 328.77 774.093 329.89C774.031 330.835 773.825 331.728 773.476 332.565C773.127 333.394 772.634 334.124 771.995 334.757C771.356 335.38 770.576 335.853 769.655 336.174C768.733 336.494 767.659 336.614 766.43 336.532C765.514 336.471 764.637 336.276 763.797 335.947C762.968 335.617 762.23 335.162 761.584 334.581C760.947 334.001 760.449 333.317 760.09 332.53C759.741 331.733 759.589 330.842 759.636 329.857L763.816 330.134C763.834 330.743 763.955 331.274 764.18 331.729C764.415 332.175 764.738 332.53 765.152 332.792C765.565 333.054 766.059 333.204 766.634 333.242C767.17 333.278 767.635 333.207 768.029 333.026C768.421 332.847 768.747 332.585 769.005 332.24C769.264 331.885 769.463 331.468 769.602 330.988C769.751 330.499 769.846 329.967 769.884 329.391C769.922 328.816 769.889 328.291 769.783 327.814C769.677 327.337 769.495 326.919 769.235 326.559C768.975 326.199 768.631 325.912 768.206 325.698C767.789 325.485 767.293 325.359 766.718 325.321C765.939 325.269 765.327 325.351 764.882 325.566C764.447 325.782 764.077 326.037 763.774 326.329Z" fill="#A42F1F"/>
<path d="M841.615 298.628L839.619 298.496C822.536 297.364 807.77 310.295 806.637 327.378L806.505 329.374C805.373 346.457 818.304 361.223 835.387 362.356L837.383 362.488C854.466 363.62 869.233 350.689 870.365 333.605L870.497 331.61C871.629 314.527 858.698 299.76 841.615 298.628Z" fill="#FFF1E6"/>
<path d="M197.726 336.133L195.73 336.001C178.647 334.869 163.88 347.8 162.748 364.884L162.616 366.879C161.484 383.963 174.415 398.729 191.498 399.861L193.494 399.993C210.577 401.126 225.344 388.194 226.476 371.111L226.608 369.115C227.74 352.032 214.809 337.266 197.726 336.133Z" fill="#FFF1E6"/>
<path d="M277.683 339.428L275.687 339.296C257.502 338.09 241.783 351.856 240.577 370.041L240.445 372.037C239.24 390.222 253.005 405.942 271.191 407.147L273.187 407.279C291.372 408.484 307.091 394.719 308.296 376.533L308.429 374.538C309.634 356.352 295.868 340.633 277.683 339.428Z" fill="#FFE5D1"/>
<path d="M277.683 339.428L275.687 339.296C257.502 338.09 241.783 351.856 240.577 370.041L240.445 372.037C239.24 390.222 253.005 405.942 271.191 407.147L273.187 407.279C291.372 408.484 307.091 394.719 308.296 376.533L308.429 374.538C309.634 356.352 295.868 340.633 277.683 339.428Z" stroke="#A42F1F" stroke-width="4"/>
<path d="M269.416 362.059L268.003 383.384L263.793 383.105L264.885 366.632L259.722 367.905L259.942 364.587L268.963 362.029L269.416 362.059ZM287.216 363.062L287.83 363.103L287.607 366.464L287.358 366.448C286.248 366.374 285.248 366.474 284.359 366.748C283.47 367.022 282.702 367.446 282.058 368.02C281.423 368.585 280.917 369.285 280.539 370.122C280.169 370.958 279.95 371.908 279.88 372.97L279.645 376.507C279.595 377.267 279.623 377.944 279.731 378.539C279.849 379.124 280.036 379.62 280.293 380.029C280.56 380.429 280.882 380.739 281.259 380.959C281.636 381.171 282.069 381.291 282.556 381.324C283.014 381.354 283.435 381.285 283.818 381.114C284.211 380.944 284.55 380.693 284.837 380.359C285.133 380.017 285.366 379.612 285.534 379.143C285.712 378.666 285.821 378.14 285.859 377.565C285.897 376.99 285.859 376.453 285.745 375.957C285.641 375.461 285.464 375.028 285.215 374.659C284.965 374.281 284.652 373.981 284.276 373.76C283.899 373.54 283.467 373.413 282.979 373.38C282.317 373.336 281.722 373.454 281.194 373.732C280.677 374.001 280.262 374.365 279.948 374.824C279.633 375.282 279.449 375.774 279.395 376.3L278.178 375.396C278.256 374.648 278.46 373.948 278.787 373.294C279.124 372.641 279.562 372.073 280.104 371.59C280.655 371.098 281.301 370.73 282.041 370.485C282.782 370.23 283.606 370.134 284.513 370.194C285.506 370.26 286.366 370.508 287.091 370.937C287.825 371.367 288.424 371.931 288.887 372.627C289.35 373.324 289.68 374.113 289.876 374.998C290.071 375.882 290.136 376.815 290.071 377.8C290.002 378.833 289.769 379.781 289.369 380.645C288.979 381.51 288.445 382.253 287.768 382.874C287.101 383.495 286.316 383.961 285.415 384.273C284.513 384.585 283.516 384.706 282.425 384.633C281.295 384.558 280.28 384.286 279.382 383.815C278.493 383.336 277.743 382.698 277.13 381.904C276.517 381.11 276.064 380.184 275.773 379.127C275.49 378.071 275.389 376.929 275.471 375.702L275.579 374.065C275.693 372.349 276.045 370.797 276.636 369.407C277.238 368.009 278.046 366.82 279.061 365.84C280.075 364.85 281.27 364.112 282.643 363.625C284.016 363.138 285.541 362.951 287.216 363.062Z" fill="#A42F1F"/>
<path d="M357.508 344.718L355.512 344.585C337.327 343.38 321.608 357.146 320.402 375.331L320.27 377.327C319.065 395.512 332.83 411.231 351.016 412.437L353.011 412.569C371.197 413.774 386.916 400.009 388.121 381.823L388.254 379.828C389.459 361.642 375.693 345.923 357.508 344.718Z" fill="#FFE5D1"/>
<path d="M357.508 344.718L355.512 344.585C337.327 343.38 321.608 357.146 320.402 375.331L320.27 377.327C319.065 395.512 332.83 411.231 351.016 412.437L353.011 412.569C371.197 413.774 386.916 400.009 388.121 381.823L388.254 379.828C389.459 361.642 375.693 345.923 357.508 344.718Z" stroke="#A42F1F" stroke-width="4"/>
<path d="M352.344 385.67L352.126 388.959L337.568 387.994L337.754 385.188L345.127 378.262C345.87 377.539 346.46 376.898 346.899 376.339C347.337 375.771 347.66 375.259 347.866 374.803C348.084 374.338 348.205 373.891 348.234 373.462C348.277 372.819 348.206 372.262 348.022 371.79C347.838 371.308 347.546 370.926 347.144 370.645C346.751 370.365 346.253 370.204 345.649 370.164C345.006 370.122 344.44 370.24 343.952 370.522C343.473 370.803 343.093 371.214 342.813 371.752C342.543 372.293 342.383 372.913 342.337 373.615L338.113 373.335C338.197 372.068 338.576 370.928 339.25 369.917C339.925 368.894 340.833 368.107 341.976 367.557C343.118 366.997 344.445 366.766 345.956 366.866C347.447 366.965 348.687 367.292 349.678 367.848C350.679 368.393 351.413 369.137 351.88 370.078C352.356 371.01 352.552 372.099 352.47 373.346C352.423 374.049 352.266 374.728 351.997 375.385C351.73 376.033 351.363 376.674 350.9 377.309C350.448 377.935 349.907 378.564 349.278 379.198C348.649 379.832 347.955 380.485 347.196 381.16L343.223 385.065L352.344 385.67ZM357.951 386.13L358.228 386.148C359.397 386.226 360.411 386.15 361.267 385.924C362.134 385.687 362.858 385.314 363.44 384.805C364.022 384.296 364.47 383.655 364.786 382.884C365.103 382.102 365.294 381.204 365.361 380.191L365.629 376.157C365.68 375.387 365.647 374.705 365.529 374.109C365.422 373.515 365.239 373.019 364.982 372.62C364.735 372.212 364.433 371.898 364.075 371.679C363.728 371.46 363.334 371.336 362.896 371.307C362.428 371.276 362.007 371.366 361.631 371.575C361.255 371.776 360.928 372.063 360.649 372.435C360.38 372.809 360.159 373.245 359.99 373.742C359.83 374.231 359.732 374.748 359.696 375.293C359.66 375.839 359.689 376.365 359.783 376.871C359.876 377.366 360.038 377.811 360.266 378.208C360.495 378.595 360.792 378.914 361.157 379.163C361.523 379.403 361.964 379.54 362.481 379.574C362.978 379.607 363.427 379.543 363.829 379.385C364.241 379.217 364.594 378.985 364.888 378.691C365.192 378.399 365.428 378.066 365.6 377.696C365.781 377.326 365.884 376.946 365.91 376.557L367.248 377.409C367.203 378.091 367.012 378.754 366.676 379.397C366.34 380.04 365.89 380.618 365.328 381.128C364.776 381.63 364.149 382.019 363.445 382.296C362.742 382.572 362 382.684 361.221 382.632C360.227 382.566 359.357 382.327 358.612 381.916C357.866 381.495 357.247 380.945 356.754 380.267C356.27 379.578 355.921 378.791 355.705 377.906C355.49 377.021 355.416 376.072 355.483 375.058C355.552 374.026 355.782 373.067 356.173 372.183C356.574 371.299 357.11 370.532 357.78 369.882C358.458 369.231 359.249 368.74 360.152 368.409C361.066 368.068 362.063 367.934 363.144 368.005C364.226 368.077 365.196 368.352 366.055 368.83C366.914 369.308 367.634 369.953 368.217 370.764C368.8 371.566 369.227 372.509 369.498 373.595C369.779 374.68 369.875 375.871 369.789 377.166L369.692 378.628C369.601 380.012 369.365 381.288 368.984 382.456C368.612 383.626 368.098 384.673 367.439 385.599C366.791 386.515 366.007 387.285 365.084 387.909C364.172 388.533 363.129 388.988 361.955 389.272C360.781 389.556 359.483 389.652 358.061 389.557L357.725 389.535L357.951 386.13Z" fill="#A42F1F"/>
<path d="M437.201 352.003L435.205 351.871C418.122 350.739 403.355 363.67 402.223 380.753L402.091 382.749C400.959 399.832 413.89 414.599 430.973 415.731L432.969 415.863C450.052 416.995 464.819 404.064 465.951 386.981L466.083 384.985C467.215 367.902 454.284 353.135 437.201 352.003Z" fill="#FFF1E6"/>
<path d="M517.158 355.297L515.162 355.165C496.977 353.96 481.257 367.725 480.052 385.911L479.92 387.907C478.715 406.092 492.48 421.811 510.666 423.016L512.661 423.149C530.847 424.354 546.566 410.588 547.771 392.403L547.903 390.407C549.109 372.222 535.343 356.503 517.158 355.297Z" fill="#FFE5D1"/>
<path d="M517.158 355.297L515.162 355.165C496.977 353.96 481.257 367.725 480.052 385.911L479.92 387.907C478.715 406.092 492.48 421.811 510.666 423.016L512.661 423.149C530.847 424.354 546.566 410.588 547.771 392.403L547.903 390.407C549.109 372.222 535.343 356.503 517.158 355.297Z" stroke="#A42F1F" stroke-width="4"/>
<path d="M512.653 391.61L512.434 394.914L497.101 393.898L497.066 391.326L506.872 377.839L510.218 378.06L506.191 383.886L501.296 390.857L512.653 391.61ZM511.124 378.12L509.714 399.402L505.505 399.123L506.916 377.842L511.124 378.12ZM529.132 394.831C529.043 396.166 528.656 397.271 527.972 398.145C527.288 399.01 526.386 399.641 525.263 400.035C524.151 400.422 522.908 400.57 521.534 400.479C520.161 400.388 518.943 400.077 517.881 399.546C516.822 399.007 516.004 398.262 515.432 397.314C514.859 396.356 514.617 395.21 514.705 393.875C514.765 392.979 514.998 392.181 515.407 391.485C515.816 390.777 516.359 390.187 517.036 389.714C517.724 389.23 518.515 388.882 519.41 388.666C520.306 388.442 521.27 388.365 522.303 388.433C523.687 388.525 524.908 388.85 525.967 389.41C527.027 389.969 527.838 390.713 528.403 391.642C528.968 392.569 529.211 393.632 529.132 394.831ZM524.911 394.272C524.954 393.62 524.865 393.051 524.643 392.566C524.43 392.073 524.109 391.685 523.678 391.402C523.245 391.118 522.733 390.957 522.138 390.918C521.544 390.878 521.014 390.971 520.55 391.194C520.085 391.418 519.709 391.76 519.424 392.22C519.15 392.672 518.991 393.225 518.948 393.877C518.905 394.52 518.99 395.084 519.202 395.568C519.425 396.053 519.752 396.436 520.183 396.719C520.625 396.993 521.148 397.15 521.752 397.19C522.356 397.23 522.885 397.143 523.34 396.928C523.805 396.705 524.17 396.367 524.435 395.915C524.709 395.463 524.868 394.915 524.911 394.272ZM529.328 384.993C529.256 386.075 528.905 387.016 528.275 387.816C527.645 388.606 526.803 389.2 525.749 389.601C524.704 390.001 523.53 390.158 522.223 390.072C520.908 389.984 519.754 389.673 518.763 389.138C517.77 388.602 517.015 387.901 516.495 387.035C515.974 386.159 515.751 385.18 515.822 384.098C515.908 382.812 516.267 381.749 516.901 380.911C517.543 380.063 518.387 379.444 519.431 379.053C520.484 378.663 521.659 378.51 522.955 378.596C524.271 378.683 525.42 378.99 526.403 379.515C527.396 380.041 528.15 380.766 528.667 381.69C529.192 382.606 529.413 383.707 529.328 384.993ZM525.106 384.905C525.145 384.329 525.075 383.825 524.898 383.393C524.722 382.951 524.451 382.601 524.087 382.341C523.732 382.083 523.282 381.936 522.736 381.9C522.21 381.865 521.75 381.946 521.355 382.146C520.97 382.345 520.661 382.652 520.428 383.067C520.204 383.474 520.074 383.974 520.035 384.569C519.996 385.143 520.06 385.657 520.226 386.108C520.402 386.55 520.672 386.906 521.036 387.175C521.399 387.443 521.849 387.595 522.385 387.631C522.922 387.666 523.383 387.575 523.769 387.356C524.166 387.138 524.475 386.82 524.698 386.404C524.932 385.98 525.068 385.48 525.106 384.905Z" fill="#A42F1F"/>
<path d="M596.983 360.588L594.987 360.455C576.802 359.25 561.082 373.015 559.877 391.201L559.745 393.197C558.54 411.382 572.305 427.101 590.491 428.306L592.486 428.439C610.672 429.644 626.391 415.879 627.596 397.693L627.728 395.697C628.934 377.512 615.168 361.793 596.983 360.588Z" fill="#FFE5D1"/>
<path d="M596.983 360.588L594.987 360.455C576.802 359.25 561.082 373.015 559.877 391.201L559.745 393.197C558.54 411.382 572.305 427.101 590.491 428.306L592.486 428.439C610.672 429.644 626.391 415.879 627.596 397.693L627.728 395.697C628.934 377.512 615.168 361.793 596.983 360.588Z" stroke="#A42F1F" stroke-width="4"/>
<path d="M581.646 394.435L578.337 393.408L580.265 382.702L592.222 383.495L591.996 386.9L583.504 386.338L582.665 391.023C582.958 390.876 583.398 390.73 583.986 390.583C584.574 390.426 585.223 390.371 585.934 390.418C586.967 390.487 587.872 390.708 588.65 391.082C589.428 391.457 590.074 391.97 590.589 392.621C591.114 393.272 591.492 394.051 591.726 394.957C591.959 395.862 592.039 396.876 591.965 397.997C591.903 398.941 591.696 399.834 591.347 400.672C590.998 401.5 590.505 402.23 589.866 402.863C589.228 403.487 588.448 403.959 587.526 404.28C586.605 404.601 585.529 404.72 584.302 404.638C583.386 404.578 582.508 404.382 581.669 404.053C580.839 403.723 580.102 403.269 579.455 402.688C578.818 402.107 578.32 401.423 577.961 400.636C577.613 399.84 577.461 398.949 577.507 397.963L581.688 398.24C581.705 398.849 581.826 399.38 582.051 399.835C582.286 400.282 582.61 400.636 583.023 400.899C583.436 401.161 583.93 401.311 584.505 401.349C585.041 401.384 585.506 401.313 585.9 401.132C586.293 400.953 586.619 400.691 586.877 400.346C587.135 399.992 587.334 399.574 587.474 399.094C587.623 398.605 587.717 398.073 587.755 397.497C587.793 396.922 587.76 396.397 587.654 395.92C587.549 395.443 587.367 395.025 587.106 394.665C586.846 394.305 586.503 394.019 586.076 393.804C585.661 393.591 585.165 393.465 584.59 393.427C583.81 393.375 583.198 393.457 582.753 393.672C582.318 393.888 581.949 394.143 581.646 394.435ZM598.834 395.574L595.526 394.547L597.454 383.842L609.41 384.634L609.184 388.039L600.692 387.477L599.853 392.162C600.147 392.015 600.587 391.869 601.174 391.722C601.762 391.565 602.412 391.51 603.123 391.557C604.156 391.626 605.061 391.847 605.839 392.221C606.616 392.597 607.263 393.109 607.778 393.76C608.302 394.411 608.681 395.19 608.915 396.096C609.149 397.002 609.228 398.015 609.153 399.136C609.091 400.081 608.885 400.973 608.536 401.811C608.188 402.639 607.694 403.369 607.055 404.003C606.416 404.626 605.636 405.098 604.715 405.419C603.793 405.74 602.719 405.859 601.49 405.777C600.574 405.717 599.697 405.521 598.857 405.192C598.028 404.863 597.29 404.408 596.644 403.827C596.007 403.246 595.509 402.562 595.15 401.775C594.801 400.979 594.65 400.088 594.696 399.103L598.876 399.38C598.895 399.988 599.016 400.519 599.24 400.974C599.475 401.421 599.798 401.775 600.212 402.038C600.626 402.3 601.12 402.45 601.694 402.488C602.23 402.523 602.695 402.452 603.089 402.271C603.482 402.092 603.808 401.83 604.065 401.485C604.324 401.131 604.523 400.713 604.662 400.233C604.812 399.744 604.906 399.212 604.944 398.636C604.982 398.061 604.949 397.536 604.843 397.059C604.738 396.582 604.555 396.164 604.295 395.804C604.035 395.444 603.691 395.158 603.266 394.943C602.849 394.73 602.353 394.604 601.778 394.566C600.999 394.514 600.387 394.596 599.942 394.811C599.507 395.027 599.137 395.282 598.834 395.574Z" fill="#A42F1F"/>
<path d="M676.808 365.877L674.812 365.745C656.627 364.54 640.907 378.305 639.702 396.491L639.57 398.486C638.365 416.672 652.13 432.391 670.316 433.596L672.311 433.728C690.497 434.934 706.216 421.168 707.421 402.983L707.553 400.987C708.759 382.802 694.993 367.082 676.808 365.877Z" fill="#FFE5D1"/>
<path d="M676.808 365.877L674.812 365.745C656.627 364.54 640.907 378.305 639.702 396.491L639.57 398.486C638.365 416.672 652.13 432.391 670.316 433.596L672.311 433.728C690.497 434.934 706.216 421.168 707.421 402.983L707.553 400.987C708.759 382.802 694.993 367.082 676.808 365.877Z" stroke="#A42F1F" stroke-width="4"/>
<path d="M669.152 388.372L669.766 388.413L669.543 391.775L669.295 391.758C668.184 391.685 667.184 391.785 666.294 392.059C665.405 392.332 664.639 392.757 663.993 393.33C663.36 393.895 662.853 394.596 662.474 395.432C662.106 396.269 661.887 397.218 661.816 398.28L661.582 401.817C661.531 402.578 661.56 403.255 661.667 403.849C661.785 404.434 661.972 404.931 662.228 405.34C662.496 405.739 662.818 406.049 663.195 406.27C663.573 406.481 664.005 406.602 664.492 406.634C664.95 406.665 665.37 406.595 665.753 406.424C666.146 406.255 666.486 406.004 666.772 405.67C667.07 405.328 667.302 404.922 667.469 404.453C667.648 403.976 667.756 403.45 667.795 402.875C667.833 402.301 667.795 401.764 667.681 401.267C667.577 400.771 667.4 400.339 667.15 399.969C666.902 399.591 666.589 399.292 666.212 399.07C665.834 398.85 665.403 398.723 664.916 398.691C664.253 398.647 663.658 398.765 663.131 399.043C662.614 399.312 662.198 399.675 661.884 400.135C661.57 400.593 661.385 401.085 661.331 401.61L660.114 400.707C660.193 399.958 660.396 399.258 660.722 398.604C661.059 397.951 661.499 397.383 662.039 396.901C662.591 396.408 663.236 396.04 663.977 395.795C664.718 395.541 665.542 395.444 666.448 395.504C667.442 395.57 668.301 395.818 669.026 396.247C669.762 396.678 670.361 397.242 670.823 397.938C671.286 398.634 671.615 399.423 671.811 400.308C672.007 401.192 672.072 402.126 672.007 403.11C671.939 404.143 671.704 405.092 671.305 405.955C670.914 406.82 670.381 407.564 669.704 408.184C669.036 408.805 668.252 409.272 667.35 409.584C666.448 409.896 665.452 410.016 664.361 409.944C663.23 409.869 662.216 409.596 661.317 409.126C660.429 408.646 659.678 408.009 659.065 407.215C658.453 406.42 658.001 405.495 657.708 404.438C657.426 403.382 657.326 402.24 657.407 401.012L657.515 399.375C657.629 397.66 657.982 396.108 658.573 394.718C659.175 393.319 659.982 392.13 660.997 391.15C662.012 390.16 663.205 389.422 664.578 388.935C665.951 388.449 667.476 388.261 669.152 388.372ZM677.25 407.289L677.528 407.308C678.697 407.385 679.71 407.31 680.567 407.083C681.434 406.847 682.158 406.474 682.74 405.964C683.322 405.456 683.77 404.815 684.086 404.043C684.402 403.261 684.594 402.364 684.661 401.35L684.929 397.316C684.98 396.547 684.947 395.864 684.829 395.269C684.722 394.675 684.539 394.179 684.282 393.78C684.034 393.371 683.733 393.058 683.375 392.839C683.028 392.619 682.634 392.496 682.196 392.467C681.728 392.436 681.306 392.525 680.931 392.735C680.555 392.935 680.228 393.222 679.949 393.595C679.679 393.969 679.459 394.404 679.29 394.902C679.13 395.391 679.032 395.907 678.996 396.453C678.96 396.999 678.989 397.525 679.083 398.03C679.176 398.525 679.338 398.971 679.566 399.368C679.795 399.755 680.092 400.073 680.457 400.323C680.823 400.563 681.264 400.699 681.781 400.734C682.278 400.766 682.727 400.703 683.129 400.544C683.541 400.376 683.894 400.145 684.187 399.851C684.491 399.558 684.728 399.226 684.9 398.856C685.081 398.486 685.184 398.106 685.21 397.717L686.548 398.569C686.503 399.251 686.312 399.913 685.976 400.557C685.639 401.2 685.19 401.777 684.628 402.287C684.076 402.79 683.449 403.178 682.745 403.455C682.042 403.731 681.3 403.844 680.521 403.792C679.527 403.726 678.657 403.487 677.911 403.076C677.166 402.655 676.547 402.104 676.053 401.426C675.57 400.738 675.221 399.951 675.005 399.066C674.79 398.181 674.716 397.232 674.783 396.218C674.851 395.185 675.081 394.226 675.473 393.342C675.874 392.459 676.41 391.692 677.079 391.041C677.758 390.391 678.549 389.9 679.452 389.569C680.365 389.228 681.363 389.093 682.444 389.165C683.526 389.237 684.496 389.511 685.355 389.989C686.214 390.467 686.934 391.112 687.517 391.924C688.1 392.726 688.527 393.669 688.797 394.754C689.078 395.839 689.175 397.03 689.089 398.326L688.992 399.787C688.9 401.171 688.664 402.447 688.283 403.616C687.912 404.786 687.398 405.833 686.739 406.759C686.091 407.675 685.307 408.445 684.384 409.069C683.472 409.693 682.429 410.148 681.255 410.432C680.081 410.716 678.783 410.811 677.361 410.717L677.025 410.695L677.25 407.289Z" fill="#A42F1F"/>
<path d="M756.5 373.163L754.505 373.031C737.421 371.898 722.655 384.83 721.523 401.913L721.39 403.908C720.258 420.992 733.189 435.758 750.273 436.89L752.268 437.023C769.352 438.155 784.118 425.224 785.25 408.14L785.383 406.145C786.515 389.061 773.584 374.295 756.5 373.163Z" fill="#FFF1E6"/>
<path d="M836.325 378.453L834.33 378.321C817.246 377.188 802.48 390.12 801.348 407.203L801.215 409.199C800.083 426.282 813.014 441.048 830.098 442.181L832.093 442.313C849.177 443.445 863.943 430.514 865.075 413.43L865.208 411.435C866.34 394.351 853.409 379.585 836.325 378.453Z" fill="#FFF1E6"/>
</g>
<defs>
<clipPath id="clip0_83_1076">
<rect width="712" height="236" fill="white" transform="translate(35.3005 103.79) rotate(-5.5197)"/>
</clipPath>
<clipPath id="clip1_83_1076">
<rect width="712" height="236" fill="white" transform="translate(171.651 170.046) rotate(3.79137)"/>
</clipPath>
</defs>
</svg>
